<svg height="244" viewBox="0 0 336 244" width="336" xmlns="http://www.w3.org/2000/svg"><path d="m0 0h336v244h-336z" fill="#fff"/><g fill="none" stroke-miterlimit="10" transform="translate(40 26)"><g transform="translate(-1)"><path d="m0 0v176.158125z"/><g pointer-events="none" transform="translate(.5 .5)"><g stroke="#888"><path d="m0 176h-5"/><path d="m0 132h-5"/><path d="m0 88h-5"/><path d="m0 44h-5"/><path d="m0 0h-5"/></g><g fill="#000" font-family="sans-serif" font-size="10" text-anchor="end"><text transform="translate(-7 179.158125)">0</text><text transform="translate(-7 135.118594)">5</text><text transform="translate(-7 91.079062)">10</text><text transform="translate(-7 47.039531)">15</text><text transform="translate(-7 3)">20</text></g><path d="m0 176.158125v-176.158125" stroke="#888"/><text fill="#000" font-family="sans-serif" font-size="11" font-weight="bold" text-anchor="middle" transform="matrix(0 -1 1 0 -25 88.079062)">Pixel 1 latency (ms)</text></g></g><g transform="translate(0 -1)"><path d="m0 0h55.46325z"/><text fill="#000" font-family="sans-serif" font-size="10" pointer-events="none" text-anchor="middle" transform="translate(27.731625 -12)">A</text></g><g transform="translate(78 -1)"><path d="m0 0h55.46325z"/><text fill="#000" font-family="sans-serif" font-size="10" pointer-events="none" text-anchor="middle" transform="translate(27.731625 -12)">B</text></g><g transform="translate(156 -1)"><path d="m0 0h55.46325z"/><text fill="#000" font-family="sans-serif" font-size="10" pointer-events="none" text-anchor="middle" transform="translate(27.731625 -12)">C</text></g><g transform="translate(234 -1)"><path d="m0 0h55.46325z"/><text fill="#000" font-family="sans-serif" font-size="10" pointer-events="none" text-anchor="middle" transform="translate(27.731625 -12)">D</text></g><g transform="translate(0 178)"><path d="m0 0h55.46325z"/><g pointer-events="none" stroke="#888" transform="translate(.5 .5)"><g><path d="m9 0v5"/><path d="m27 0v5"/><path d="m46 0v5"/></g><path d="m0 0h55.46325"/></g></g><g transform="translate(78 178)"><path d="m0 0h55.46325z"/><g pointer-events="none" stroke="#888" transform="translate(.5 .5)"><g><path d="m9 0v5"/><path d="m27 0v5"/><path d="m46 0v5"/></g><path d="m0 0h55.46325"/></g></g><g transform="translate(156 178)"><path d="m0 0h55.46325z"/><g pointer-events="none" stroke="#888" transform="translate(.5 .5)"><g><path d="m9 0v5"/><path d="m27 0v5"/><path d="m46 0v5"/></g><path d="m0 0h55.46325"/></g></g><g transform="translate(234 178)"><path d="m0 0h55.46325z"/><g pointer-events="none" stroke="#888" transform="translate(.5 .5)"><g><path d="m9 0v5"/><path d="m27 0v5"/><path d="m46 0v5"/></g><path d="m0 0h55.46325"/></g></g><path d="m.5.5h55.46325v176.158125h-55.46325z" stroke="#ddd"/><g pointer-events="none" stroke="#ddd" transform="translate(.5 .5)"><path d="m0 176h55.46325"/><path d="m0 132h55.46325"/><path d="m0 88h55.46325"/><path d="m0 44h55.46325"/><path d="m0 0h55.46325"/></g><path d="m37.8998875 163.86228788h16.638975v12.29583712h-16.638975z" fill="#e15759"/><path d="m.9243875 25.92166809h16.638975v150.23645691h-16.638975z" fill="#4e79a7"/><path d="m19.4121375 66.80796891h16.638975v109.35015609h-16.638975z" fill="#edc948"/><g transform="translate(78)"><path d="m.5.5h55.46325v176.158125h-55.46325z" stroke="#ddd"/><g pointer-events="none" stroke="#ddd" transform="translate(.5 .5)"><path d="m0 176h55.46325"/><path d="m0 132h55.46325"/><path d="m0 88h55.46325"/><path d="m0 44h55.46325"/><path d="m0 0h55.46325"/></g><path d="m37.8998875 166.76889694h16.638975v9.38922806h-16.638975z" fill="#e15759"/><path d="m.9243875 35.21400919h16.638975v140.94411581h-16.638975z" fill="#4e79a7"/><path d="m19.4121375 70.19901281h16.638975v105.95911219h-16.638975z" fill="#edc948"/></g><g transform="translate(156)"><path d="m.5.5h55.46325v176.158125h-55.46325z" stroke="#ddd"/><g pointer-events="none" stroke="#ddd" transform="translate(.5 .5)"><path d="m0 176h55.46325"/><path d="m0 132h55.46325"/><path d="m0 88h55.46325"/><path d="m0 44h55.46325"/><path d="m0 0h55.46325"/></g><path d="m37.8998875 166.95386297h16.638975v9.20426203h-16.638975z" fill="#e15759"/><path d="m.9243875 35.55751753h16.638975v140.60060747h-16.638975z" fill="#4e79a7"/><path d="m19.4121375 69.51199613h16.638975v106.64612887h-16.638975z" fill="#edc948"/></g><g transform="translate(234)"><path d="m.5.5h55.46325v176.158125h-55.46325z" stroke="#ddd"/><g pointer-events="none" stroke="#ddd" transform="translate(.5 .5)"><path d="m0 176h55.46325"/><path d="m0 132h55.46325"/><path d="m0 88h55.46325"/><path d="m0 44h55.46325"/><path d="m0 0h55.46325"/></g><path d="m37.8998875 166.34611744h16.638975v9.81200756h-16.638975z" fill="#e15759"/><path d="m.9243875 8.94002484h16.638975v167.21810016h-16.638975z" fill="#4e79a7"/><path d="m19.4121375 60.04349691h16.638975v116.11462809h-16.638975z" fill="#edc948"/></g><g pointer-events="none" transform="translate(0 202)"><path d="m0 0h262v11h-262z"/><path d="m0 0h83v11h-83z"/><path d="m-5-5h10v10h-10z" fill="#4e79a7" stroke-width="1.5" transform="translate(6 6)"/><text fill="#000" font-family="sans-serif" font-size="10" transform="translate(16 9)">Float (TFLite)</text><g transform="translate(93)"><path d="m0 0h81v11h-81z"/><path d="m-5-5h10v10h-10z" fill="#edc948" stroke-width="1.5" transform="translate(6 6)"/><text fill="#000" font-family="sans-serif" font-size="10" transform="translate(16 9)">8-bit (TFLite)</text></g><g transform="translate(184)"><path d="m0 0h78v11h-78z"/><path d="m-5-5h10v10h-10z" fill="#e15759" stroke-width="1.5" transform="translate(6 6)"/><text fill="#000" font-family="sans-serif" font-size="10" transform="translate(16 9)">Binary (LCE)</text></g></g></g></svg>