<svg height="149.2925" viewBox="0 0 322.853 149.2925" width="322.853" xmlns="http://www.w3.org/2000/svg"><path d="m0 0h322.853v149.2925h-322.853z" fill="#fff"/><g fill="none" stroke-miterlimit="10" transform="translate(34 34)"><path d="m.5.5h281.853v78.2925h-281.853z" stroke="#ddd"/><g pointer-events="none"><g stroke="#ddd" transform="translate(.5 78.7925)"><path d="m0 0v-78.2925"/><path d="m31 0v-78.2925"/><path d="m63 0v-78.2925"/><path d="m94 0v-78.2925"/><path d="m125 0v-78.2925"/><path d="m157 0v-78.2925"/><path d="m188 0v-78.2925"/><path d="m219 0v-78.2925"/><path d="m251 0v-78.2925"/><path d="m282 0v-78.2925"/></g><g transform="translate(.5 78.7925)"><g stroke="#888"><path d="m0 0v5"/><path d="m31 0v5"/><path d="m63 0v5"/><path d="m94 0v5"/><path d="m125 0v5"/><path d="m157 0v5"/><path d="m188 0v5"/><path d="m219 0v5"/><path d="m251 0v5"/><path d="m282 0v5"/></g><g fill="#000" font-family="sans-serif" font-size="10"><text transform="translate(0 15)">0</text><g text-anchor="middle"><text transform="translate(31.317 15)">10</text><text transform="translate(62.634 15)">20</text><text transform="translate(93.951 15)">30</text><text transform="translate(125.268 15)">40</text><text transform="translate(156.585 15)">50</text><text transform="translate(187.902 15)">60</text><text transform="translate(219.219 15)">70</text><text transform="translate(250.536 15)">80</text></g><text text-anchor="end" transform="translate(281.853 15)">90</text></g><path d="m0 0h281.853" stroke="#888"/><text fill="#000" font-family="sans-serif" font-size="11" font-weight="bold" text-anchor="middle" transform="translate(140.9265 30)">Pixel 1 latency (ms)</text></g><g transform="translate(.5 .5)"><g stroke="#888"><path d="m0 13h-5"/><path d="m0 39h-5"/><path d="m0 65h-5"/></g><g fill="#000" font-family="sans-serif" font-size="10" text-anchor="end"><text transform="translate(-7 15.54875)">BDN</text><text transform="translate(-7 41.64625)">R2B</text><text transform="translate(-7 67.74375)">QNL</text></g><path d="m0 0v78.2925" stroke="#888"/></g></g><path d="m0 27.402375h57.0721008v23.48775h-57.0721008z" fill="#4e79a7"/><path d="m57.0721008 27.402375h8.3334537v23.48775h-8.3334537z" fill="#bab0ac"/><path d="m65.4055545 27.402375h4.3655898v23.48775h-4.3655898z" fill="#e15759"/><path d="m69.7711443 27.402375h.0093951v23.48775h-.0093951z" fill="#bab0ac"/><path d="m69.7805394 27.402375h.0219219v23.48775h-.0219219z" fill="#4e79a7"/><path d="m69.8024613 27.402375h3.2851533v23.48775h-3.2851533z" fill="#bab0ac"/><path d="m73.0876146 27.402375h4.3280094v23.48775h-4.3280094z" fill="#e15759"/><path d="m77.415624 27.402375h.0093951v23.48775h-.0093951z" fill="#bab0ac"/><path d="m77.4250191 27.402375h.0219219v23.48775h-.0219219z" fill="#4e79a7"/><path d="m77.446941 27.402375h3.2788899v23.48775h-3.2788899z" fill="#bab0ac"/><path d="m80.7258309 27.402375h4.3436679v23.48775h-4.3436679z" fill="#e15759"/><path d="m85.0694988 27.402375h.0125268v23.48775h-.0125268z" fill="#bab0ac"/><path d="m85.0820256 27.402375h.0250536v23.48775h-.0250536z" fill="#4e79a7"/><path d="m85.1070792 27.402375h3.194334v23.48775h-3.194334z" fill="#bab0ac"/><path d="m88.3014132 27.402375h4.321746v23.48775h-4.321746z" fill="#e15759"/><path d="m92.6231592 27.402375h.0093951v23.48775h-.0093951z" fill="#bab0ac"/><path d="m92.6325543 27.402375h.0250536v23.48775h-.0250536z" fill="#4e79a7"/><path d="m92.6576079 27.402375h4.1870829v23.48775h-4.1870829z" fill="#bab0ac"/><path d="m96.8446908 27.402375h2.1264243v23.48775h-2.1264243z" fill="#e15759"/><path d="m98.9711151 27.402375h.0062634v23.48775h-.0062634z" fill="#bab0ac"/><path d="m98.9773785 27.402375h.0219219v23.48775h-.0219219z" fill="#4e79a7"/><path d="m98.9993004 27.402375h.5292573v23.48775h-.5292573z" fill="#bab0ac"/><path d="m99.5285577 27.402375h2.9406663v23.48775h-2.9406663z" fill="#4e79a7"/><path d="m102.469224 27.402375h1.0084074v23.48775h-1.0084074z" fill="#bab0ac"/><path d="m103.4776314 27.402375h3.3008118v23.48775h-3.3008118z" fill="#e15759"/><path d="m106.7784432 27.402375h.0062634v23.48775h-.0062634z" fill="#bab0ac"/><path d="m106.7847066 27.402375h.031317v23.48775h-.031317z" fill="#4e79a7"/><path d="m106.8160236 27.402375h1.4593722v23.48775h-1.4593722z" fill="#bab0ac"/><path d="m108.2753958 27.402375h3.2663631v23.48775h-3.2663631z" fill="#e15759"/><path d="m111.5417589 27.402375h.0062634v23.48775h-.0062634z" fill="#bab0ac"/><path d="m111.5480223 27.402375h.031317v23.48775h-.031317z" fill="#4e79a7"/><path d="m111.5793393 27.402375h1.4030016v23.48775h-1.4030016z" fill="#bab0ac"/><path d="m112.9823409 27.402375h3.2757582v23.48775h-3.2757582z" fill="#e15759"/><path d="m116.2580991 27.402375h.0062634v23.48775h-.0062634z" fill="#bab0ac"/><path d="m116.2643625 27.402375h.031317v23.48775h-.031317z" fill="#4e79a7"/><path d="m116.2956795 27.402375h1.8007275v23.48775h-1.8007275z" fill="#bab0ac"/><path d="m118.096407 27.402375h1.6566693v23.48775h-1.6566693z" fill="#e15759"/><path d="m119.7530763 27.402375h.0031317v23.48775h-.0031317z" fill="#bab0ac"/><path d="m119.756208 27.402375h.031317v23.48775h-.031317z" fill="#4e79a7"/><path d="m119.787525 27.402375h.2380092v23.48775h-.2380092z" fill="#bab0ac"/><path d="m120.0255342 27.402375h2.8842957v23.48775h-2.8842957z" fill="#4e79a7"/><path d="m122.9098299 27.402375h.4008576v23.48775h-.4008576z" fill="#bab0ac"/><path d="m123.3106875 27.402375h3.2319144v23.48775h-3.2319144z" fill="#e15759"/><path d="m126.5426019 27.402375h.0062634v23.48775h-.0062634z" fill="#bab0ac"/><path d="m126.5488653 27.402375h.0657657v23.48775h-.0657657z" fill="#4e79a7"/><path d="m126.614631 27.402375h.6200766v23.48775h-.6200766z" fill="#bab0ac"/><path d="m127.2347076 27.402375h3.1661487v23.48775h-3.1661487z" fill="#e15759"/><path d="m130.4008563 27.402375h.0031317v23.48775h-.0031317z" fill="#bab0ac"/><path d="m130.403988 27.402375h.0657657v23.48775h-.0657657z" fill="#4e79a7"/><path d="m130.4697537 27.402375h.5981547v23.48775h-.5981547z" fill="#bab0ac"/><path d="m131.0679084 27.402375h3.1379634v23.48775h-3.1379634z" fill="#e15759"/><path d="m134.2058718 27.402375h.0062634v23.48775h-.0062634z" fill="#bab0ac"/><path d="m134.2121352 27.402375h.0563706v23.48775h-.0563706z" fill="#4e79a7"/><path d="m134.2685058 27.402375h.7328178v23.48775h-.7328178z" fill="#bab0ac"/><path d="m135.0013236 27.402375h1.6817229v23.48775h-1.6817229z" fill="#e15759"/><path d="m136.6830465 27.402375h.0031317v23.48775h-.0031317z" fill="#bab0ac"/><path d="m136.6861782 27.402375h.1002144v23.48775h-.1002144z" fill="#4e79a7"/><path d="m136.7863926 27.402375h.1315314v23.48775h-.1315314z" fill="#bab0ac"/><path d="m136.917924 27.402375h3.4636602v23.48775h-3.4636602z" fill="#4e79a7"/><path d="m140.3815842 27.402375h.2411409v23.48775h-.2411409z" fill="#bab0ac"/><path d="m140.6227251 27.402375h3.288285v23.48775h-3.288285z" fill="#e15759"/><path d="m143.9110101 27.402375h.0062634v23.48775h-.0062634z" fill="#bab0ac"/><path d="m143.9172735 27.402375h.1722435v23.48775h-.1722435z" fill="#4e79a7"/><path d="m144.089517 27.402375h.3319602v23.48775h-.3319602z" fill="#bab0ac"/><path d="m144.4214772 27.402375h3.2788899v23.48775h-3.2788899z" fill="#e15759"/><path d="m147.7003671 27.402375h.0031317v23.48775h-.0031317z" fill="#bab0ac"/><path d="m147.7034988 27.402375h.1409265v23.48775h-.1409265z" fill="#4e79a7"/><path d="m147.8444253 27.402375h.3413553v23.48775h-.3413553z" fill="#bab0ac"/><path d="m148.1857806 27.402375h3.256968v23.48775h-3.256968z" fill="#e15759"/><path d="m151.4427486 27.402375h.0031317v23.48775h-.0031317z" fill="#bab0ac"/><path d="m151.4458803 27.402375h.1283997v23.48775h-.1283997z" fill="#4e79a7"/><path d="m151.57428 27.402375h.2442726v23.48775h-.2442726z" fill="#bab0ac"/><path d="m151.8185526 27.402375h.8925345v23.48775h-.8925345z" fill="#4e79a7"/><path d="m152.7110871 27.402375h.0469755v23.48775h-.0469755z" fill="#bab0ac"/><path d="m0 53.499875h8.9347401v23.48775h-8.9347401z" fill="#4e79a7"/><path d="m8.9347401 53.499875h.9958806v23.48775h-.9958806z" fill="#bab0ac"/><path d="m9.9306207 53.499875h4.3718532v23.48775h-4.3718532z" fill="#e15759"/><path d="m14.3024739 53.499875h.6482619v23.48775h-.6482619z" fill="#bab0ac"/><path d="m14.9507358 53.499875h4.3906434v23.48775h-4.3906434z" fill="#e15759"/><path d="m19.3413792 53.499875h.5981547v23.48775h-.5981547z" fill="#bab0ac"/><path d="m19.9395339 53.499875h4.3937751v23.48775h-4.3937751z" fill="#e15759"/><path d="m24.333309 53.499875h.6044181v23.48775h-.6044181z" fill="#bab0ac"/><path d="m24.9377271 53.499875h4.4407506v23.48775h-4.4407506z" fill="#e15759"/><path d="m29.3784777 53.499875h.6075498v23.48775h-.6075498z" fill="#bab0ac"/><path d="m29.9860275 53.499875h4.4000385v23.48775h-4.4000385z" fill="#e15759"/><path d="m34.386066 53.499875h.5981547v23.48775h-.5981547z" fill="#bab0ac"/><path d="m34.9842207 53.499875h4.3687215v23.48775h-4.3687215z" fill="#e15759"/><path d="m39.3529422 53.499875h1.2933921v23.48775h-1.2933921z" fill="#bab0ac"/><path d="m40.6463343 53.499875h2.8592421v23.48775h-2.8592421z" fill="#4e79a7"/><path d="m43.5055764 53.499875h2.2203753v23.48775h-2.2203753z" fill="#e15759"/><path d="m45.7259517 53.499875h.2442726v23.48775h-.2442726z" fill="#bab0ac"/><path d="m45.9702243 53.499875h3.256968v23.48775h-3.256968z" fill="#e15759"/><path d="m49.2271923 53.499875h.2599311v23.48775h-.2599311z" fill="#bab0ac"/><path d="m49.4871234 53.499875h3.2820216v23.48775h-3.2820216z" fill="#e15759"/><path d="m52.769145 53.499875h.3069066v23.48775h-.3069066z" fill="#bab0ac"/><path d="m53.0760516 53.499875h3.288285v23.48775h-3.288285z" fill="#e15759"/><path d="m56.3643366 53.499875h.2630628v23.48775h-.2630628z" fill="#bab0ac"/><path d="m56.6273994 53.499875h3.2757582v23.48775h-3.2757582z" fill="#e15759"/><path d="m59.9031576 53.499875h.2881164v23.48775h-.2881164z" fill="#bab0ac"/><path d="m60.191274 53.499875h3.256968v23.48775h-3.256968z" fill="#e15759"/><path d="m63.448242 53.499875h.2724579v23.48775h-.2724579z" fill="#bab0ac"/><path d="m63.7206999 53.499875h3.2663631v23.48775h-3.2663631z" fill="#e15759"/><path d="m66.987063 53.499875h.2881164v23.48775h-.2881164z" fill="#bab0ac"/><path d="m67.2751794 53.499875h3.2507046v23.48775h-3.2507046z" fill="#e15759"/><path d="m70.525884 53.499875h.5167305v23.48775h-.5167305z" fill="#bab0ac"/><path d="m71.0426145 53.499875h.031317v23.48775h-.031317z" fill="#4e79a7"/><path d="m71.0739315 53.499875h.2912481v23.48775h-.2912481z" fill="#bab0ac"/><path d="m71.3651796 53.499875h2.8216617v23.48775h-2.8216617z" fill="#4e79a7"/><path d="m74.1868413 53.499875h1.7286984v23.48775h-1.7286984z" fill="#e15759"/><path d="m75.9155397 53.499875h.3100383v23.48775h-.3100383z" fill="#bab0ac"/><path d="m76.225578 53.499875h.0375804v23.48775h-.0375804z" fill="#4e79a7"/><path d="m76.2631584 53.499875h.0156585v23.48775h-.0156585z" fill="#bab0ac"/><path d="m76.2788169 53.499875h3.1567536v23.48775h-3.1567536z" fill="#e15759"/><path d="m79.4355705 53.499875h.281853v23.48775h-.281853z" fill="#bab0ac"/><path d="m79.7174235 53.499875h.0344487v23.48775h-.0344487z" fill="#4e79a7"/><path d="m79.7518722 53.499875h.0125268v23.48775h-.0125268z" fill="#bab0ac"/><path d="m79.764399 53.499875h3.1379634v23.48775h-3.1379634z" fill="#e15759"/><path d="m82.9023624 53.499875h.2912481v23.48775h-.2912481z" fill="#bab0ac"/><path d="m83.1936105 53.499875h.031317v23.48775h-.031317z" fill="#4e79a7"/><path d="m83.2249275 53.499875h.0187902v23.48775h-.0187902z" fill="#bab0ac"/><path d="m83.2437177 53.499875h3.1348317v23.48775h-3.1348317z" fill="#e15759"/><path d="m86.3785494 53.499875h.2724579v23.48775h-.2724579z" fill="#bab0ac"/><path d="m86.6510073 53.499875h.0250536v23.48775h-.0250536z" fill="#4e79a7"/><path d="m86.6760609 53.499875h.0156585v23.48775h-.0156585z" fill="#bab0ac"/><path d="m86.6917194 53.499875h3.1160415v23.48775h-3.1160415z" fill="#e15759"/><path d="m89.8077609 53.499875h.3006432v23.48775h-.3006432z" fill="#bab0ac"/><path d="m90.1084041 53.499875h.0219219v23.48775h-.0219219z" fill="#4e79a7"/><path d="m90.130326 53.499875h.0125268v23.48775h-.0125268z" fill="#bab0ac"/><path d="m90.1428528 53.499875h3.1097781v23.48775h-3.1097781z" fill="#e15759"/><path d="m93.2526309 53.499875h.281853v23.48775h-.281853z" fill="#bab0ac"/><path d="m93.5344839 53.499875h.0250536v23.48775h-.0250536z" fill="#4e79a7"/><path d="m93.5595375 53.499875h.0156585v23.48775h-.0156585z" fill="#bab0ac"/><path d="m93.575196 53.499875h3.1285683v23.48775h-3.1285683z" fill="#e15759"/><path d="m96.7037643 53.499875h.2755896v23.48775h-.2755896z" fill="#bab0ac"/><path d="m96.9793539 53.499875h.0250536v23.48775h-.0250536z" fill="#4e79a7"/><path d="m97.0044075 53.499875h.0125268v23.48775h-.0125268z" fill="#bab0ac"/><path d="m97.0169343 53.499875h3.1191732v23.48775h-3.1191732z" fill="#e15759"/><path d="m100.1361075 53.499875h.2849847v23.48775h-.2849847z" fill="#bab0ac"/><path d="m100.4210922 53.499875h.0250536v23.48775h-.0250536z" fill="#4e79a7"/><path d="m100.4461458 53.499875h.0125268v23.48775h-.0125268z" fill="#bab0ac"/><path d="m100.4586726 53.499875h3.1191732v23.48775h-3.1191732z" fill="#e15759"/><path d="m103.5778458 53.499875h.2881164v23.48775h-.2881164z" fill="#bab0ac"/><path d="m103.8659622 53.499875h.0250536v23.48775h-.0250536z" fill="#4e79a7"/><path d="m103.8910158 53.499875h.0156585v23.48775h-.0156585z" fill="#bab0ac"/><path d="m103.9066743 53.499875h3.1254366v23.48775h-3.1254366z" fill="#e15759"/><path d="m107.0321109 53.499875h.281853v23.48775h-.281853z" fill="#bab0ac"/><path d="m107.3139639 53.499875h.0281853v23.48775h-.0281853z" fill="#4e79a7"/><path d="m107.3421492 53.499875h.0125268v23.48775h-.0125268z" fill="#bab0ac"/><path d="m107.354676 53.499875h3.1129098v23.48775h-3.1129098z" fill="#e15759"/><path d="m110.4675858 53.499875h.281853v23.48775h-.281853z" fill="#bab0ac"/><path d="m110.7494388 53.499875h.0250536v23.48775h-.0250536z" fill="#4e79a7"/><path d="m110.7744924 53.499875h.0125268v23.48775h-.0125268z" fill="#bab0ac"/><path d="m110.7870192 53.499875h3.1191732v23.48775h-3.1191732z" fill="#e15759"/><path d="m113.9061924 53.499875h.2849847v23.48775h-.2849847z" fill="#bab0ac"/><path d="m114.1911771 53.499875h.0344487v23.48775h-.0344487z" fill="#4e79a7"/><path d="m114.2256258 53.499875h.1534533v23.48775h-.1534533z" fill="#bab0ac"/><path d="m114.3790791 53.499875h3.4699236v23.48775h-3.4699236z" fill="#4e79a7"/><path d="m117.8490027 53.499875h1.7568837v23.48775h-1.7568837z" fill="#e15759"/><path d="m119.6058864 53.499875h.1691118v23.48775h-.1691118z" fill="#bab0ac"/><path d="m119.7749982 53.499875h.0720291v23.48775h-.0720291z" fill="#4e79a7"/><path d="m119.8470273 53.499875h.0281853v23.48775h-.0281853z" fill="#bab0ac"/><path d="m119.8752126 53.499875h3.2413095v23.48775h-3.2413095z" fill="#e15759"/><path d="m123.1165221 53.499875h.1503216v23.48775h-.1503216z" fill="#bab0ac"/><path d="m123.2668437 53.499875h.0720291v23.48775h-.0720291z" fill="#4e79a7"/><path d="m123.3388728 53.499875h.0187902v23.48775h-.0187902z" fill="#bab0ac"/><path d="m123.357663 53.499875h3.2350461v23.48775h-3.2350461z" fill="#e15759"/><path d="m126.5927091 53.499875h.1409265v23.48775h-.1409265z" fill="#bab0ac"/><path d="m126.7336356 53.499875h.093951v23.48775h-.093951z" fill="#4e79a7"/><path d="m126.8275866 53.499875h.0187902v23.48775h-.0187902z" fill="#bab0ac"/><path d="m126.8463768 53.499875h3.2099925v23.48775h-3.2099925z" fill="#e15759"/><path d="m130.0563693 53.499875h.1471899v23.48775h-.1471899z" fill="#bab0ac"/><path d="m130.2035592 53.499875h.0751608v23.48775h-.0751608z" fill="#4e79a7"/><path d="m130.27872 53.499875h.0187902v23.48775h-.0187902z" fill="#bab0ac"/><path d="m130.2975102 53.499875h3.2068608v23.48775h-3.2068608z" fill="#e15759"/><path d="m133.504371 53.499875h.1377948v23.48775h-.1377948z" fill="#bab0ac"/><path d="m133.6421658 53.499875h.0908193v23.48775h-.0908193z" fill="#4e79a7"/><path d="m133.7329851 53.499875h.0219219v23.48775h-.0219219z" fill="#bab0ac"/><path d="m133.754907 53.499875h3.2099925v23.48775h-3.2099925z" fill="#e15759"/><path d="m136.9648995 53.499875h.1409265v23.48775h-.1409265z" fill="#bab0ac"/><path d="m137.105826 53.499875h.9426417v23.48775h-.9426417z" fill="#4e79a7"/><path d="m138.0484677 53.499875h.0469755v23.48775h-.0469755z" fill="#bab0ac"/><path d="m0 1.304875h57.717231v23.48775h-57.717231z" fill="#4e79a7"/><path d="m57.717231 1.304875h5.511792v23.48775h-5.511792z" fill="#bab0ac"/><path d="m63.229023 1.304875h4.4595408v23.48775h-4.4595408z" fill="#e15759"/><path d="m67.6885638 1.304875h3.0972513v23.48775h-3.0972513z" fill="#bab0ac"/><path d="m70.7858151 1.304875h7.3626267v23.48775h-7.3626267z" fill="#e15759"/><path d="m78.1484418 1.304875h4.4188287v23.48775h-4.4188287z" fill="#bab0ac"/><path d="m82.5672705 1.304875h10.9546866v23.48775h-10.9546866z" fill="#e15759"/><path d="m93.5219571 1.304875h5.8750692v23.48775h-5.8750692z" fill="#bab0ac"/><path d="m99.3970263 1.304875h13.8796944v23.48775h-13.8796944z" fill="#e15759"/><path d="m113.2767207 1.304875h7.0933005v23.48775h-7.0933005z" fill="#bab0ac"/><path d="m120.3700212 1.304875h17.913324v23.48775h-17.913324z" fill="#e15759"/><path d="m138.2833452 1.304875h7.7634843v23.48775h-7.7634843z" fill="#bab0ac"/><path d="m146.0468295 1.304875h20.7443808v23.48775h-20.7443808z" fill="#e15759"/><path d="m166.7912103 1.304875h14.4120834v23.48775h-14.4120834z" fill="#bab0ac"/><path d="m181.2032937 1.304875h23.8604223v23.48775h-23.8604223z" fill="#4e79a7"/><path d="m205.063716 1.304875h.6701838v23.48775h-.6701838z" fill="#bab0ac"/><path d="m205.7338998 1.304875h2.348775v23.48775h-2.348775z" fill="#e15759"/><path d="m208.0826748 1.304875h1.2652068v23.48775h-1.2652068z" fill="#bab0ac"/><path d="m209.3478816 1.304875h3.1410951v23.48775h-3.1410951z" fill="#e15759"/><path d="m212.4889767 1.304875h1.6504059v23.48775h-1.6504059z" fill="#bab0ac"/><path d="m214.1393826 1.304875h4.1808195v23.48775h-4.1808195z" fill="#e15759"/><path d="m218.3202021 1.304875h1.9573125v23.48775h-1.9573125z" fill="#bab0ac"/><path d="m220.2775146 1.304875h5.0295102v23.48775h-5.0295102z" fill="#e15759"/><path d="m225.3070248 1.304875h2.286141v23.48775h-2.286141z" fill="#bab0ac"/><path d="m227.5931658 1.304875h5.9470983v23.48775h-5.9470983z" fill="#e15759"/><path d="m233.5402641 1.304875h2.6400231v23.48775h-2.6400231z" fill="#bab0ac"/><path d="m236.1802872 1.304875h6.6673893v23.48775h-6.6673893z" fill="#e15759"/><path d="m242.8476765 1.304875h4.5159114v23.48775h-4.5159114z" fill="#bab0ac"/><path d="m247.3635879 1.304875h9.0161643v23.48775h-9.0161643z" fill="#4e79a7"/><path d="m256.3797522 1.304875h.1785069v23.48775h-.1785069z" fill="#bab0ac"/><path d="m256.5582591 1.304875h.7108959v23.48775h-.7108959z" fill="#e15759"/><path d="m257.269155 1.304875h.2630628v23.48775h-.2630628z" fill="#bab0ac"/><path d="m257.5322178 1.304875h.8392956v23.48775h-.8392956z" fill="#e15759"/><path d="m258.3715134 1.304875h.2912481v23.48775h-.2912481z" fill="#bab0ac"/><path d="m258.6627615 1.304875h1.0804365v23.48775h-1.0804365z" fill="#e15759"/><path d="m259.743198 1.304875h.3851991v23.48775h-.3851991z" fill="#bab0ac"/><path d="m260.1283971 1.304875h1.2620751v23.48775h-1.2620751z" fill="#e15759"/><path d="m261.3904722 1.304875h.5104671v23.48775h-.5104671z" fill="#bab0ac"/><path d="m261.9009393 1.304875h1.5314013v23.48775h-1.5314013z" fill="#e15759"/><path d="m263.4323406 1.304875h.6326034v23.48775h-.6326034z" fill="#bab0ac"/><path d="m264.064944 1.304875h1.7005131v23.48775h-1.7005131z" fill="#e15759"/><path d="m265.7654571 1.304875h1.0178025v23.48775h-1.0178025z" fill="#bab0ac"/><path d="m266.7832596 1.304875h3.9678639v23.48775h-3.9678639z" fill="#4e79a7"/><path d="m270.7511235 1.304875h.0751608v23.48775h-.0751608z" fill="#bab0ac"/><path d="m270.8262843 1.304875h.2943798v23.48775h-.2943798z" fill="#e15759"/><path d="m271.1206641 1.304875h.0908193v23.48775h-.0908193z" fill="#bab0ac"/><path d="m271.2114834 1.304875h.3037749v23.48775h-.3037749z" fill="#e15759"/><path d="m271.5152583 1.304875h.0814242v23.48775h-.0814242z" fill="#bab0ac"/><path d="m271.5966825 1.304875h.3350919v23.48775h-.3350919z" fill="#e15759"/><path d="m271.9317744 1.304875h.0845559v23.48775h-.0845559z" fill="#bab0ac"/><path d="m272.0163303 1.304875h.3977259v23.48775h-.3977259z" fill="#e15759"/><path d="m272.4140562 1.304875h.1158729v23.48775h-.1158729z" fill="#bab0ac"/><path d="m272.5299291 1.304875h.4415697v23.48775h-.4415697z" fill="#e15759"/><path d="m272.9714988 1.304875h.1753752v23.48775h-.1753752z" fill="#bab0ac"/><path d="m273.146874 1.304875h1.0522512v23.48775h-1.0522512z" fill="#4e79a7"/><path d="m274.1991252 1.304875h.0438438v23.48775h-.0438438z" fill="#bab0ac"/><g pointer-events="none" transform="translate(0 -29)"><path d="m0 0h266v11h-266z"/><path d="m0 0h121v11h-121z"/><path d="m-5-5h10v10h-10z" fill="#4e79a7" stroke-width="1.5" transform="translate(6 6)"/><text fill="#000" font-family="sans-serif" font-size="10" transform="translate(16 9)">High-precision layers</text><g transform="translate(131)"><path d="m0 0h44v11h-44z"/><path d="m-5-5h10v10h-10z" fill="#bab0ac" stroke-width="1.5" transform="translate(6 6)"/><text fill="#000" font-family="sans-serif" font-size="10" transform="translate(16 9)">Other</text></g><g transform="translate(185)"><path d="m0 0h81v11h-81z"/><path d="m-5-5h10v10h-10z" fill="#e15759" stroke-width="1.5" transform="translate(6 6)"/><text fill="#000" font-family="sans-serif" font-size="10" transform="translate(16 9)">Binary layers</text></g></g></g></svg>