<svg fill="none" height="24" viewBox="0 0 24 24" width="24" xmlns="http://www.w3.org/2000/svg" xmlns:xlink="http://www.w3.org/1999/xlink"><clipPath id="a"><path d="m0 0h24v23.411h-24z"/></clipPath><g clip-path="url(#a)"><path clip-rule="evenodd" d="m12 0c-6.62577 0-12 5.37423-12 12 0 5.3006 3.46012 9.7914 8.17178 11.411.58896.0737.80982-.2944.80982-.5889s0-1.0307 0-2.0614c-3.31289.7362-4.04908-1.6196-4.04908-1.6196-.51534-1.3988-1.32516-1.7669-1.32516-1.7669-1.10429-.7362.07362-.7362.07362-.7362 1.17792.0737 1.84049 1.2516 1.84049 1.2516 1.1043 1.8405 2.79755 1.3251 3.46013 1.0306.07362-.8098.44171-1.3251.73619-1.6196-2.6503-.2945-5.44785-1.3251-5.44785-5.9632 0-1.3251.44172-2.3558 1.25153-3.23924-.07362-.22086-.51533-1.47239.14724-3.09202 0 0 1.03068-.29448 3.31289 1.25153.95705-.29448 1.9877-.3681 3.0184-.3681s2.0614.14724 3.0184.3681c2.2822-1.54601 3.3129-1.25153 3.3129-1.25153.6626 1.61963.2208 2.87116.1472 3.16564.7362.80982 1.2516 1.91412 1.2516 3.23922 0 4.6381-2.7976 5.5951-5.4479 5.8896.4417.3681.8098 1.1043.8098 2.2086v3.3129c0 .2945.2209.6626.8098.5889 4.7853-1.6196 8.1718-6.1104 8.1718-11.411-.0736-6.62577-5.4478-12-12.0736-12z" fill="#fff" fill-rule="evenodd"/></g></svg>