<svg fill="none" height="364" viewBox="0 0 573 364" width="573" xmlns="http://www.w3.org/2000/svg"><g stroke="#ddd"><path d="m53.5 27.5h400v300h-400z"/><path d="m53.5 27.5v300"/><path d="m93.5 27.5v300"/><path d="m133.5 27.5v300"/><path d="m173.5 27.5v300"/><path d="m213.5 27.5v300"/><path d="m253.5 27.5v300"/><path d="m293.5 27.5v300"/><path d="m333.5 27.5v300"/><path d="m373.5 27.5v300"/><path d="m413.5 27.5v300"/><path d="m453.5 27.5v300"/><path d="m53.5 327.5h400"/><path d="m53.5 284.5h400"/><path d="m53.5 241.5h400"/><path d="m53.5 198.5h400"/><path d="m53.5 156.5h400"/><path d="m53.5 113.5h400"/><path d="m53.5 70.5h400"/><path d="m53.5 27.5h400"/></g><path d="m53.5 327.5v5" stroke="#888"/><path d="m93.5 327.5v5" stroke="#888"/><path d="m133.5 327.5v5" stroke="#888"/><path d="m173.5 327.5v5" stroke="#888"/><path d="m213.5 327.5v5" stroke="#888"/><path d="m253.5 327.5v5" stroke="#888"/><path d="m293.5 327.5v5" stroke="#888"/><path d="m333.5 327.5v5" stroke="#888"/><path d="m373.5 327.5v5" stroke="#888"/><path d="m413.5 327.5v5" stroke="#888"/><path d="m453.5 327.5v5" stroke="#888"/><path d="m58.4023 336.246c0 .355-.0944.671-.2832.947-.1855.277-.4378.494-.7568.65.3711.159.6641.392.8789.698.2181.306.3272.653.3272 1.04 0 .615-.2084 1.105-.625 1.47-.4135.364-.9587.547-1.6358.547-.6836 0-1.2321-.183-1.6455-.547-.4101-.368-.6152-.858-.6152-1.47 0-.384.1041-.731.3125-1.04.2116-.309.5029-.544.874-.703-.3158-.156-.5648-.373-.7471-.65-.1823-.276-.2734-.59-.2734-.942 0-.599.192-1.074.5762-1.426.3841-.351.8903-.527 1.5185-.527.625 0 1.1296.176 1.5137.527.3874.352.581.827.581 1.426zm-.7373 3.316c0-.398-.1269-.722-.3808-.972-.2507-.251-.5794-.376-.9863-.376s-.7341.124-.9815.371c-.2441.247-.3662.573-.3662.977 0 .403.1188.721.3564.952.2409.231.5746.346 1.001.346.4232 0 .7552-.115.9961-.346.2409-.235.3613-.552.3613-.952zm-1.3574-4.527c-.3548 0-.6429.111-.8642.332-.2181.218-.3272.516-.3272.894 0 .361.1074.654.3223.879.2181.221.5078.332.8691.332s.6494-.111.8643-.332c.2181-.225.3271-.518.3271-.879 0-.362-.1123-.656-.3369-.884s-.5094-.342-.8545-.342zm7.8565 3.433c0 1.058-.1807 1.844-.542 2.358-.3614.514-.9261.772-1.6944.772-.7584 0-1.32-.251-1.6845-.752-.3646-.505-.5534-1.257-.5664-2.256v-1.206c0-1.045.1806-1.822.542-2.329.3613-.508.9277-.762 1.6992-.762.7649 0 1.3281.246 1.6894.737.3614.489.5469 1.244.5567 2.266zm-.9034-1.236c0-.765-.1074-1.321-.3222-1.67-.2149-.351-.555-.527-1.0205-.527-.4623 0-.7992.174-1.0108.523-.2116.348-.3206.883-.3271 1.606v1.445c0 .769.1107 1.337.332 1.704.2246.365.5632.547 1.0156.547.446 0 .7764-.172.9912-.517.2181-.345.3321-.889.3418-1.631z" fill="#000"/><path d="m88.5596 341.5h-.9082v-6.021l-1.8213.669v-.82l2.5879-.972h.1416zm7.1045-3.032c0 1.058-.1807 1.844-.542 2.358-.3614.514-.9261.772-1.6944.772-.7584 0-1.32-.251-1.6845-.752-.3646-.505-.5534-1.257-.5664-2.256v-1.206c0-1.045.1806-1.822.542-2.329.3613-.508.9277-.762 1.6992-.762.7649 0 1.3281.246 1.6894.737.3614.489.5469 1.244.5567 2.266zm-.9034-1.236c0-.765-.1074-1.321-.3222-1.67-.2149-.351-.555-.527-1.0205-.527-.4623 0-.7992.174-1.0108.523-.2116.348-.3206.883-.3271 1.606v1.445c0 .769.1107 1.337.332 1.704.2246.365.5632.547 1.0156.547.446 0 .7764-.172.9912-.517.2181-.345.3321-.889.3418-1.631zm6.5183 1.236c0 1.058-.18 1.844-.542 2.358-.361.514-.9258.772-1.694.772-.7585 0-1.32-.251-1.6846-.752-.3646-.505-.5534-1.257-.5664-2.256v-1.206c0-1.045.1807-1.822.542-2.329.3613-.508.9277-.762 1.6992-.762.765 0 1.3278.246 1.6898.737.361.489.547 1.244.556 2.266zm-.903-1.236c0-.765-.107-1.321-.322-1.67-.2151-.351-.5553-.527-1.0208-.527-.4622 0-.7992.174-1.0107.523-.2116.348-.3207.883-.3272 1.606v1.445c0 .769.1107 1.337.332 1.704.2247.365.5632.547 1.0157.547.4459 0 .7763-.172.991-.517.218-.345.332-.889.342-1.631z" fill="#000"/><path d="m128.56 341.5h-.909v-6.021l-1.821.669v-.82l2.588-.972h.142zm7.304 0h-4.658v-.649l2.461-2.735c.365-.413.615-.748.752-1.006.14-.26.21-.529.21-.805 0-.371-.112-.676-.337-.913-.225-.238-.524-.357-.898-.357-.45 0-.8.129-1.05.386-.248.254-.371.609-.371 1.064h-.904c0-.654.21-1.183.63-1.587.423-.403.988-.605 1.695-.605.66 0 1.183.174 1.567.522.384.345.576.806.576 1.382 0 .7-.446 1.533-1.338 2.5l-1.904 2.066h3.569zm5.415-3.032c0 1.058-.18 1.844-.542 2.358-.361.514-.926.772-1.694.772-.758 0-1.32-.251-1.685-.752-.364-.505-.553-1.257-.566-2.256v-1.206c0-1.045.181-1.822.542-2.329.361-.508.928-.762 1.699-.762.765 0 1.328.246 1.69.737.361.489.547 1.244.556 2.266zm-.903-1.236c0-.765-.107-1.321-.322-1.67-.215-.351-.555-.527-1.021-.527-.462 0-.799.174-1.011.523-.211.348-.32.883-.327 1.606v1.445c0 .769.111 1.337.332 1.704.225.365.563.547 1.016.547.446 0 .776-.172.991-.517.218-.345.332-.889.342-1.631z" fill="#000"/><path d="m168.56 341.5h-.909v-6.021l-1.821.669v-.82l2.588-.972h.142zm6.46-2.388h.986v.738h-.986v1.65h-.909v-1.65h-3.237v-.533l3.184-4.926h.962zm-3.121 0h2.212v-3.486l-.107.195zm9.38-.644c0 1.058-.18 1.844-.542 2.358-.361.514-.926.772-1.694.772-.758 0-1.32-.251-1.685-.752-.364-.505-.553-1.257-.566-2.256v-1.206c0-1.045.181-1.822.542-2.329.361-.508.928-.762 1.699-.762.765 0 1.328.246 1.69.737.361.489.547 1.244.556 2.266zm-.903-1.236c0-.765-.107-1.321-.322-1.67-.215-.351-.555-.527-1.021-.527-.462 0-.799.174-1.011.523-.211.348-.32.883-.327 1.606v1.445c0 .769.111 1.337.332 1.704.225.365.563.547 1.016.547.446 0 .776-.172.991-.517.218-.345.332-.889.342-1.631z" fill="#000"/><path d="m208.56 341.5h-.909v-6.021l-1.821.669v-.82l2.588-.972h.142zm6.191-7.114v.766h-.166c-.703.013-1.263.222-1.68.625-.416.404-.657.972-.722 1.704.374-.429.885-.644 1.533-.644.618 0 1.111.218 1.479.654.371.436.557 1 .557 1.69 0 .732-.2 1.318-.601 1.757-.397.44-.931.66-1.601.66-.681 0-1.232-.261-1.655-.782-.424-.524-.635-1.198-.635-2.021v-.347c0-1.308.278-2.308.835-2.998.56-.693 1.391-1.048 2.495-1.064zm-1.187 3.203c-.309 0-.594.093-.854.278-.26.186-.441.418-.542.698v.332c0 .586.132 1.058.395 1.416.264.359.593.538.987.538.407 0 .726-.15.957-.45.234-.299.351-.691.351-1.176 0-.489-.118-.883-.356-1.182-.234-.303-.547-.454-.938-.454zm7.715.879c0 1.058-.18 1.844-.542 2.358-.361.514-.926.772-1.694.772-.758 0-1.32-.251-1.685-.752-.364-.505-.553-1.257-.566-2.256v-1.206c0-1.045.181-1.822.542-2.329.361-.508.928-.762 1.699-.762.765 0 1.328.246 1.69.737.361.489.547 1.244.556 2.266zm-.903-1.236c0-.765-.107-1.321-.322-1.67-.215-.351-.555-.527-1.021-.527-.462 0-.799.174-1.011.523-.211.348-.32.883-.327 1.606v1.445c0 .769.111 1.337.332 1.704.225.365.563.547 1.016.547.446 0 .776-.172.991-.517.218-.345.332-.889.342-1.631z" fill="#000"/><path d="m248.56 341.5h-.909v-6.021l-1.821.669v-.82l2.588-.972h.142zm6.958-5.254c0 .355-.095.671-.284.947-.185.277-.437.494-.756.65.371.159.664.392.878.698.219.306.328.653.328 1.04 0 .615-.209 1.105-.625 1.47-.414.364-.959.547-1.636.547-.684 0-1.232-.183-1.646-.547-.41-.368-.615-.858-.615-1.47 0-.384.104-.731.313-1.04.211-.309.503-.544.874-.703-.316-.156-.565-.373-.747-.65-.183-.276-.274-.59-.274-.942 0-.599.192-1.074.576-1.426.384-.351.891-.527 1.519-.527.625 0 1.129.176 1.514.527.387.352.581.827.581 1.426zm-.738 3.316c0-.398-.127-.722-.381-.972-.25-.251-.579-.376-.986-.376s-.734.124-.981.371c-.244.247-.367.573-.367.977 0 .403.119.721.357.952.241.231.574.346 1.001.346.423 0 .755-.115.996-.346.241-.235.361-.552.361-.952zm-1.357-4.527c-.355 0-.643.111-.864.332-.219.218-.328.516-.328.894 0 .361.108.654.323.879.218.221.508.332.869.332s.649-.111.864-.332c.218-.225.327-.518.327-.879 0-.362-.112-.656-.337-.884-.224-.228-.509-.342-.854-.342zm7.856 3.433c0 1.058-.18 1.844-.542 2.358-.361.514-.926.772-1.694.772-.758 0-1.32-.251-1.685-.752-.364-.505-.553-1.257-.566-2.256v-1.206c0-1.045.181-1.822.542-2.329.361-.508.928-.762 1.699-.762.765 0 1.328.246 1.69.737.361.489.547 1.244.556 2.266zm-.903-1.236c0-.765-.107-1.321-.322-1.67-.215-.351-.555-.527-1.021-.527-.462 0-.799.174-1.011.523-.211.348-.32.883-.327 1.606v1.445c0 .769.111 1.337.332 1.704.225.365.563.547 1.016.547.446 0 .776-.172.991-.517.218-.345.332-.889.342-1.631z" fill="#000"/><path d="m290.249 341.5h-4.658v-.649l2.461-2.735c.364-.413.615-.748.752-1.006.14-.26.21-.529.21-.805 0-.371-.113-.676-.337-.913-.225-.238-.524-.357-.899-.357-.449 0-.799.129-1.049.386-.248.254-.372.609-.372 1.064h-.903c0-.654.21-1.183.63-1.587.423-.403.988-.605 1.694-.605.661 0 1.184.174 1.568.522.384.345.576.806.576 1.382 0 .7-.446 1.533-1.338 2.5l-1.904 2.066h3.569zm5.415-3.032c0 1.058-.181 1.844-.542 2.358s-.926.772-1.694.772c-.759 0-1.32-.251-1.685-.752-.364-.505-.553-1.257-.566-2.256v-1.206c0-1.045.18-1.822.542-2.329.361-.508.927-.762 1.699-.762.765 0 1.328.246 1.689.737.362.489.547 1.244.557 2.266zm-.903-1.236c0-.765-.108-1.321-.323-1.67-.214-.351-.555-.527-1.02-.527-.462 0-.799.174-1.011.523-.211.348-.32.883-.327 1.606v1.445c0 .769.111 1.337.332 1.704.225.365.563.547 1.016.547.446 0 .776-.172.991-.517.218-.345.332-.889.342-1.631zm6.518 1.236c0 1.058-.18 1.844-.542 2.358-.361.514-.926.772-1.694.772-.758 0-1.32-.251-1.685-.752-.364-.505-.553-1.257-.566-2.256v-1.206c0-1.045.181-1.822.542-2.329.361-.508.928-.762 1.699-.762.765 0 1.328.246 1.69.737.361.489.547 1.244.556 2.266zm-.903-1.236c0-.765-.107-1.321-.322-1.67-.215-.351-.555-.527-1.021-.527-.462 0-.799.174-1.011.523-.211.348-.32.883-.327 1.606v1.445c0 .769.111 1.337.332 1.704.225.365.563.547 1.016.547.446 0 .776-.172.991-.517.218-.345.332-.889.342-1.631z" fill="#000"/><path d="m330.249 341.5h-4.658v-.649l2.461-2.735c.364-.413.615-.748.752-1.006.14-.26.21-.529.21-.805 0-.371-.113-.676-.337-.913-.225-.238-.524-.357-.899-.357-.449 0-.799.129-1.049.386-.248.254-.372.609-.372 1.064h-.903c0-.654.21-1.183.63-1.587.423-.403.988-.605 1.694-.605.661 0 1.184.174 1.568.522.384.345.576.806.576 1.382 0 .7-.446 1.533-1.338 2.5l-1.904 2.066h3.569zm5.615 0h-4.658v-.649l2.461-2.735c.365-.413.615-.748.752-1.006.14-.26.21-.529.21-.805 0-.371-.112-.676-.337-.913-.225-.238-.524-.357-.898-.357-.45 0-.8.129-1.05.386-.248.254-.371.609-.371 1.064h-.904c0-.654.21-1.183.63-1.587.423-.403.988-.605 1.695-.605.66 0 1.183.174 1.567.522.384.345.576.806.576 1.382 0 .7-.446 1.533-1.338 2.5l-1.904 2.066h3.569zm5.415-3.032c0 1.058-.18 1.844-.542 2.358-.361.514-.926.772-1.694.772-.758 0-1.32-.251-1.685-.752-.364-.505-.553-1.257-.566-2.256v-1.206c0-1.045.181-1.822.542-2.329.361-.508.928-.762 1.699-.762.765 0 1.328.246 1.69.737.361.489.547 1.244.556 2.266zm-.903-1.236c0-.765-.107-1.321-.322-1.67-.215-.351-.555-.527-1.021-.527-.462 0-.799.174-1.011.523-.211.348-.32.883-.327 1.606v1.445c0 .769.111 1.337.332 1.704.225.365.563.547 1.016.547.446 0 .776-.172.991-.517.218-.345.332-.889.342-1.631z" fill="#000"/><path d="m370.249 341.5h-4.658v-.649l2.461-2.735c.364-.413.615-.748.752-1.006.14-.26.21-.529.21-.805 0-.371-.113-.676-.337-.913-.225-.238-.524-.357-.899-.357-.449 0-.799.129-1.049.386-.248.254-.372.609-.372 1.064h-.903c0-.654.21-1.183.63-1.587.423-.403.988-.605 1.694-.605.661 0 1.184.174 1.568.522.384.345.576.806.576 1.382 0 .7-.446 1.533-1.338 2.5l-1.904 2.066h3.569zm4.771-2.388h.986v.738h-.986v1.65h-.909v-1.65h-3.237v-.533l3.184-4.926h.962zm-3.121 0h2.212v-3.486l-.107.195zm9.38-.644c0 1.058-.18 1.844-.542 2.358-.361.514-.926.772-1.694.772-.758 0-1.32-.251-1.685-.752-.364-.505-.553-1.257-.566-2.256v-1.206c0-1.045.181-1.822.542-2.329.361-.508.928-.762 1.699-.762.765 0 1.328.246 1.69.737.361.489.547 1.244.556 2.266zm-.903-1.236c0-.765-.107-1.321-.322-1.67-.215-.351-.555-.527-1.021-.527-.462 0-.799.174-1.011.523-.211.348-.32.883-.327 1.606v1.445c0 .769.111 1.337.332 1.704.225.365.563.547 1.016.547.446 0 .776-.172.991-.517.218-.345.332-.889.342-1.631z" fill="#000"/><path d="m410.249 341.5h-4.658v-.649l2.461-2.735c.364-.413.615-.748.752-1.006.14-.26.21-.529.21-.805 0-.371-.113-.676-.337-.913-.225-.238-.524-.357-.899-.357-.449 0-.799.129-1.049.386-.248.254-.372.609-.372 1.064h-.903c0-.654.21-1.183.63-1.587.423-.403.988-.605 1.694-.605.661 0 1.184.174 1.568.522.384.345.576.806.576 1.382 0 .7-.446 1.533-1.338 2.5l-1.904 2.066h3.569zm4.502-7.114v.766h-.166c-.703.013-1.263.222-1.68.625-.416.404-.657.972-.722 1.704.374-.429.885-.644 1.533-.644.618 0 1.111.218 1.479.654.371.436.557 1 .557 1.69 0 .732-.2 1.318-.601 1.757-.397.44-.931.66-1.601.66-.681 0-1.232-.261-1.655-.782-.424-.524-.635-1.198-.635-2.021v-.347c0-1.308.278-2.308.835-2.998.56-.693 1.391-1.048 2.495-1.064zm-1.187 3.203c-.309 0-.594.093-.854.278-.26.186-.441.418-.542.698v.332c0 .586.132 1.058.395 1.416.264.359.593.538.987.538.407 0 .726-.15.957-.45.234-.299.351-.691.351-1.176 0-.489-.118-.883-.356-1.182-.234-.303-.547-.454-.938-.454zm7.715.879c0 1.058-.18 1.844-.542 2.358-.361.514-.926.772-1.694.772-.758 0-1.32-.251-1.685-.752-.364-.505-.553-1.257-.566-2.256v-1.206c0-1.045.181-1.822.542-2.329.361-.508.928-.762 1.699-.762.765 0 1.328.246 1.69.737.361.489.547 1.244.556 2.266zm-.903-1.236c0-.765-.107-1.321-.322-1.67-.215-.351-.555-.527-1.021-.527-.462 0-.799.174-1.011.523-.211.348-.32.883-.327 1.606v1.445c0 .769.111 1.337.332 1.704.225.365.563.547 1.016.547.446 0 .776-.172.991-.517.218-.345.332-.889.342-1.631z" fill="#000"/><path d="m441.749 341.5h-4.658v-.649l2.461-2.735c.364-.413.615-.748.752-1.006.14-.26.21-.529.21-.805 0-.371-.113-.676-.337-.913-.225-.238-.524-.357-.899-.357-.449 0-.799.129-1.049.386-.248.254-.372.609-.372 1.064h-.903c0-.654.21-1.183.63-1.587.423-.403.988-.605 1.694-.605.661 0 1.184.174 1.568.522.384.345.576.806.576 1.382 0 .7-.446 1.533-1.338 2.5l-1.904 2.066h3.569zm5.269-5.254c0 .355-.095.671-.284.947-.185.277-.437.494-.756.65.371.159.664.392.878.698.219.306.328.653.328 1.04 0 .615-.209 1.105-.625 1.47-.414.364-.959.547-1.636.547-.684 0-1.232-.183-1.646-.547-.41-.368-.615-.858-.615-1.47 0-.384.104-.731.313-1.04.211-.309.503-.544.874-.703-.316-.156-.565-.373-.747-.65-.183-.276-.274-.59-.274-.942 0-.599.192-1.074.576-1.426.384-.351.891-.527 1.519-.527.625 0 1.129.176 1.514.527.387.352.581.827.581 1.426zm-.738 3.316c0-.398-.127-.722-.381-.972-.25-.251-.579-.376-.986-.376s-.734.124-.981.371c-.244.247-.367.573-.367.977 0 .403.119.721.357.952.241.231.574.346 1.001.346.423 0 .755-.115.996-.346.241-.235.361-.552.361-.952zm-1.357-4.527c-.355 0-.643.111-.864.332-.219.218-.328.516-.328.894 0 .361.108.654.323.879.218.221.508.332.869.332s.649-.111.864-.332c.218-.225.327-.518.327-.879 0-.362-.112-.656-.337-.884-.224-.228-.509-.342-.854-.342zm7.856 3.433c0 1.058-.18 1.844-.542 2.358-.361.514-.926.772-1.694.772-.758 0-1.32-.251-1.685-.752-.364-.505-.553-1.257-.566-2.256v-1.206c0-1.045.181-1.822.542-2.329.361-.508.928-.762 1.699-.762.765 0 1.328.246 1.69.737.361.489.547 1.244.556 2.266zm-.903-1.236c0-.765-.107-1.321-.322-1.67-.215-.351-.555-.527-1.021-.527-.462 0-.799.174-1.011.523-.211.348-.32.883-.327 1.606v1.445c0 .769.111 1.337.332 1.704.225.365.563.547 1.016.547.446 0 .776-.172.991-.517.218-.345.332-.889.342-1.631z" fill="#000"/><path d="m53.5 327.5h400" stroke="#888"/><path d="m152.234 356.5h-1.557v-8.25h1.557zm4.652 0c-.072-.14-.124-.313-.156-.521-.376.419-.865.628-1.466.628-.57 0-1.042-.164-1.418-.494-.373-.329-.559-.745-.559-1.246 0-.616.227-1.088.682-1.418.459-.329 1.119-.496 1.982-.499h.715v-.333c0-.269-.07-.484-.21-.645-.136-.161-.353-.242-.65-.242-.261 0-.467.063-.618.188-.146.126-.22.298-.22.516h-1.552c0-.337.104-.648.312-.934.207-.287.501-.511.88-.672.38-.165.806-.247 1.279-.247.716 0 1.283.181 1.702.543.423.358.634.862.634 1.514v2.519c.004.552.081.969.231 1.252v.091zm-1.284-1.08c.229 0 .44-.05.634-.15.193-.104.336-.242.43-.414v-.999h-.581c-.777 0-1.19.269-1.24.806l-.006.091c0 .194.068.353.204.478.137.126.323.188.559.188zm5.672-6.16v1.428h.994v1.139h-.994v2.901c0 .214.041.368.123.461.083.094.24.14.473.14.172 0 .324-.012.457-.037v1.176c-.305.093-.618.139-.94.139-1.089 0-1.644-.549-1.665-1.649v-3.131h-.849v-1.139h.849v-1.428zm4.533 7.347c-.852 0-1.547-.261-2.084-.784-.533-.523-.8-1.219-.8-2.089v-.151c0-.583.113-1.104.338-1.562.226-.462.545-.817.956-1.064.416-.251.888-.376 1.418-.376.795 0 1.42.251 1.875.752.458.501.687 1.212.687 2.132v.634h-3.7c.05.38.2.684.451.913.254.229.574.344.961.344.598 0 1.065-.217 1.402-.65l.763.854c-.233.329-.548.587-.946.773-.397.183-.837.274-1.321.274zm-.177-4.769c-.308 0-.559.104-.752.311-.19.208-.312.505-.365.892h2.159v-.124c-.007-.343-.1-.608-.279-.794-.179-.19-.434-.285-.763-.285zm4.882-1.15.049.672c.415-.519.972-.779 1.67-.779.616 0 1.074.181 1.375.543.301.361.455.902.462 1.622v3.754h-1.552v-3.717c0-.329-.072-.567-.215-.714-.143-.151-.382-.226-.715-.226-.436 0-.764.186-.982.559v4.098h-1.553v-5.812zm7.155 4.668c.286 0 .519-.079.698-.236.179-.158.272-.367.279-.629h1.456c-.004.394-.111.756-.323 1.085-.211.326-.501.58-.87.763-.365.179-.77.268-1.214.268-.83 0-1.486-.263-1.965-.789-.48-.53-.72-1.261-.72-2.192v-.102c0-.895.238-1.609.714-2.143.476-.533 1.13-.8 1.961-.8.727 0 1.308.208 1.745.623.441.412.664.962.672 1.649h-1.456c-.007-.301-.1-.544-.279-.73-.179-.19-.416-.285-.709-.285-.362 0-.636.132-.822.397-.183.262-.274.688-.274 1.279v.161c0 .598.091 1.027.274 1.289.183.261.46.392.833.392zm5.489-1.053 1.074-3.615h1.665l-2.336 6.714-.129.306c-.348.76-.921 1.139-1.719 1.139-.226 0-.455-.034-.688-.102v-1.176l.237.005c.293 0 .512-.045.655-.134.147-.09.261-.238.344-.446l.182-.478-2.035-5.828h1.67zm6.16-.983c0-.82.11-1.6.328-2.341.218-.742.541-1.397.967-1.966.426-.573.888-.971 1.386-1.193l.3.838c-.522.387-.931.985-1.224 1.794-.294.809-.441 1.755-.441 2.836v.167c0 1.085.145 2.033.435 2.846s.7 1.42 1.23 1.821l-.3.822c-.487-.219-.942-.605-1.365-1.16-.419-.552-.739-1.189-.961-1.912-.222-.724-.34-1.479-.355-2.267zm5.253-2.632.049.65c.411-.505.968-.757 1.67-.757.748 0 1.262.295 1.542.886.408-.591.99-.886 1.745-.886.63 0 1.099.184 1.407.553.308.366.462.917.462 1.655v3.711h-1.557v-3.706c0-.329-.065-.569-.194-.72-.129-.154-.356-.231-.682-.231-.465 0-.788.222-.967.666l.006 3.991h-1.552v-3.701c0-.336-.067-.58-.199-.73-.133-.151-.358-.226-.677-.226-.44 0-.759.183-.956.548v4.109h-1.552v-5.812zm11.221 4.206c0-.19-.095-.338-.285-.446-.186-.111-.487-.209-.902-.295-1.383-.29-2.074-.877-2.074-1.762 0-.516.213-.945.639-1.289.43-.347.991-.521 1.682-.521.737 0 1.326.174 1.767.521.444.347.666.799.666 1.354h-1.553c0-.222-.071-.405-.214-.548-.144-.147-.367-.22-.672-.22-.261 0-.463.059-.607.177-.143.118-.215.268-.215.451 0 .172.081.311.242.419.165.104.441.195.827.274.387.075.713.161.978.258.82.3 1.23.821 1.23 1.563 0 .53-.228.959-.682 1.289-.455.325-1.042.488-1.762.488-.487 0-.92-.086-1.3-.257-.376-.176-.671-.414-.886-.715-.215-.304-.322-.632-.322-.983h1.471c.015.276.117.487.307.634.189.147.444.22.762.22.297 0 .521-.055.672-.166.154-.115.231-.263.231-.446zm5.188-1.45c0 .809-.116 1.588-.349 2.336-.233.749-.568 1.409-1.004 1.982-.437.573-.905.967-1.402 1.182l-.301-.822c.508-.383.909-.974 1.203-1.772.294-.799.446-1.717.457-2.756v-.284c0-1.071-.147-2.015-.441-2.831-.29-.816-.696-1.429-1.219-1.837l.301-.822c.487.212.945.595 1.375 1.15.433.555.768 1.201 1.004 1.939.24.737.365 1.502.376 2.293zm6.961.333h-3.024v-1.252h3.024zm8.143.671c0-.304-.108-.537-.323-.698-.215-.165-.601-.337-1.16-.516-.558-.182-1.001-.361-1.327-.537-.888-.48-1.332-1.126-1.332-1.939 0-.422.119-.798.355-1.128.24-.333.582-.592 1.026-.778.447-.187.949-.28 1.504-.28.558 0 1.056.102 1.493.306.437.201.775.486 1.015.854.243.369.365.788.365 1.257h-1.611c0-.358-.113-.635-.338-.832-.226-.201-.543-.301-.951-.301-.394 0-.7.084-.919.252-.218.165-.327.384-.327.656 0 .254.127.467.381.639.258.172.636.333 1.133.483.917.276 1.585.618 2.004 1.026s.628.917.628 1.526c0 .676-.256 1.208-.768 1.595-.512.383-1.201.574-2.068.574-.601 0-1.149-.109-1.643-.327-.494-.222-.872-.525-1.134-.908-.257-.383-.386-.827-.386-1.332h1.616c0 .863.516 1.294 1.547 1.294.383 0 .682-.077.897-.23.215-.158.323-.376.323-.656zm8.599-4.463h-2.396v6.515h-1.611v-6.515h-2.363v-1.305h6.37zm3.029-1.305 2.009 5.672 1.998-5.672h2.116v7.82h-1.617v-2.138l.161-3.69-2.11 5.828h-1.107l-2.105-5.822.161 3.684v2.138h-1.612v-7.82zm8.943 3.222h.827c.394 0 .686-.098.875-.295.19-.197.285-.458.285-.784 0-.315-.095-.561-.285-.736-.186-.176-.444-.263-.773-.263-.297 0-.546.082-.747.247-.2.161-.3.372-.3.634h-1.553c0-.409.11-.774.328-1.096.222-.326.53-.58.924-.763.397-.182.834-.274 1.31-.274.828 0 1.476.199 1.945.596.469.394.703.939.703 1.633 0 .358-.109.688-.327.989-.219.3-.505.531-.86.692.441.158.768.394.983.709.219.316.328.688.328 1.118 0 .694-.254 1.251-.763 1.67-.505.419-1.174.628-2.009.628-.78 0-1.419-.205-1.917-.617-.494-.412-.741-.956-.741-1.633h1.552c0 .294.109.533.328.72.222.186.494.279.816.279.369 0 .657-.097.865-.29.211-.197.317-.457.317-.779 0-.78-.43-1.171-1.289-1.171h-.822zm10.097 4.598h-5.36v-1.063l2.53-2.697c.347-.379.603-.711.768-.993.168-.283.252-.552.252-.806 0-.347-.087-.62-.263-.816-.175-.201-.426-.301-.752-.301-.351 0-.628.121-.832.365-.201.24-.301.557-.301.951h-1.558c0-.477.113-.912.339-1.306.229-.393.551-.701.967-.923.415-.226.886-.339 1.412-.339.806 0 1.431.194 1.875.58.447.387.671.933.671 1.639 0 .386-.1.78-.301 1.181-.2.401-.544.868-1.031 1.402l-1.778 1.875h3.362zm5.828-3.196h-3.094v3.196h-1.611v-7.82h5.092v1.305h-3.481v2.019h3.094zm5.747.253h.886v1.251h-.886v1.692h-1.552v-1.692h-3.207l-.069-.977 3.26-5.151h1.568zm-3.282 0h1.73v-2.761l-.102.177zm10.27-.29c0 1.081-.224 1.908-.671 2.481-.448.573-1.103.859-1.966.859-.852 0-1.504-.281-1.955-.843s-.682-1.368-.693-2.417v-1.439c0-1.092.225-1.921.677-2.487.454-.566 1.108-.849 1.96-.849s1.504.281 1.955.844c.451.558.682 1.362.693 2.411zm-1.552-1.579c0-.649-.09-1.119-.269-1.413-.175-.297-.451-.446-.827-.446-.365 0-.636.142-.811.424-.172.28-.263.718-.274 1.316v1.902c0 .637.086 1.112.258 1.423.175.308.455.462.838.462.379 0 .653-.149.822-.446.168-.297.256-.752.263-1.364zm7.922-2.138-3.024 6.95h-1.638l3.029-6.563h-3.888v-1.257h5.521zm4.055 5.011 1.773-5.881h1.794l-2.723 7.82h-1.682l-2.712-7.82h1.789zm10.42.951c-.29.347-.7.617-1.23.811-.53.19-1.117.284-1.761.284-.677 0-1.272-.146-1.784-.44-.508-.297-.902-.727-1.181-1.289-.276-.562-.417-1.223-.425-1.982v-.532c0-.78.131-1.455.392-2.025.265-.573.645-1.009 1.139-1.31.498-.305 1.08-.457 1.746-.457.927 0 1.652.222 2.175.666.523.441.833 1.083.929 1.929h-1.568c-.072-.448-.231-.776-.478-.983-.244-.208-.58-.312-1.01-.312-.548 0-.965.206-1.251.618-.287.412-.432 1.024-.435 1.837v.499c0 .82.155 1.44.467 1.859.311.419.768.628 1.369.628.606 0 1.037-.129 1.295-.387v-1.348h-1.466v-1.187h3.077zm7.316.988c-.072-.14-.124-.313-.156-.521-.376.419-.865.628-1.466.628-.57 0-1.042-.164-1.418-.494-.373-.329-.559-.745-.559-1.246 0-.616.227-1.088.682-1.418.458-.329 1.119-.496 1.982-.499h.714v-.333c0-.269-.069-.484-.209-.645-.136-.161-.353-.242-.65-.242-.261 0-.467.063-.618.188-.146.126-.22.298-.22.516h-1.552c0-.337.104-.648.311-.934.208-.287.502-.511.881-.672.38-.165.806-.247 1.279-.247.716 0 1.283.181 1.702.543.423.358.634.862.634 1.514v2.519c.004.552.081.969.231 1.252v.091zm-1.284-1.08c.229 0 .44-.05.634-.15.193-.104.336-.242.429-.414v-.999h-.58c-.777 0-1.19.269-1.24.806l-.006.091c0 .194.068.353.204.478.136.126.323.188.559.188zm5.672-6.16v1.428h.993v1.139h-.993v2.901c0 .214.041.368.123.461.083.094.24.14.473.14.172 0 .324-.012.457-.037v1.176c-.305.093-.618.139-.94.139-1.089 0-1.644-.549-1.665-1.649v-3.131h-.849v-1.139h.849v-1.428zm8.304 7.24h-1.553v-5.983l-1.853.574v-1.262l3.239-1.16h.167zm6.756-7.901v1.278h-.15c-.702.011-1.268.194-1.697.548-.426.355-.682.847-.768 1.477.415-.422.94-.633 1.573-.633.681 0 1.221.243 1.622.73s.602 1.128.602 1.923c0 .508-.111.968-.333 1.38-.218.412-.53.733-.935.962-.401.229-.855.343-1.364.343-.823 0-1.489-.286-1.998-.859-.505-.573-.757-1.337-.757-2.293v-.559c0-.849.159-1.597.478-2.245.322-.652.782-1.155 1.38-1.509.602-.358 1.298-.539 2.09-.543zm-1.514 3.916c-.251 0-.478.066-.682.198-.205.129-.355.301-.452.516v.473c0 .519.102.925.307 1.219.204.29.49.435.859.435.333 0 .602-.131.806-.392.207-.265.311-.607.311-1.026 0-.426-.104-.77-.311-1.031-.208-.262-.487-.392-.838-.392zm8.717-1.757c0 .38-.095.716-.285 1.01-.189.294-.451.528-.784.704.38.182.68.435.902.757.223.319.334.695.334 1.128 0 .695-.237 1.244-.709 1.649-.473.401-1.116.601-1.929.601s-1.457-.202-1.933-.607c-.477-.404-.715-.952-.715-1.643 0-.433.111-.811.333-1.133.222-.323.521-.573.897-.752-.333-.176-.594-.41-.784-.704-.186-.294-.279-.63-.279-1.01 0-.666.222-1.196.666-1.59.444-.397 1.047-.596 1.81-.596.759 0 1.361.197 1.805.591.447.39.671.922.671 1.595zm-1.391 3.486c0-.34-.099-.612-.296-.816-.196-.204-.461-.306-.794-.306-.33 0-.593.102-.79.306-.197.2-.295.472-.295.816 0 .333.096.602.29.806.193.204.462.306.805.306.337 0 .6-.099.79-.295.193-.197.29-.47.29-.817zm-.161-3.411c0-.304-.081-.547-.242-.73-.161-.186-.388-.279-.682-.279-.29 0-.516.089-.677.268s-.242.426-.242.741c0 .312.081.563.242.752.161.19.389.285.682.285.294 0 .52-.095.677-.285.161-.189.242-.44.242-.752zm7.782-2.153 2.009 5.672 1.998-5.672h2.117v7.82h-1.617v-2.138l.161-3.69-2.111 5.828h-1.106l-2.106-5.822.161 3.684v2.138h-1.611v-7.82zm13.895 7.82h-1.611v-3.352h-3.142v3.352h-1.611v-7.82h1.611v3.169h3.142v-3.169h1.611zm3.094-1.251h2.842v1.251h-4.824v-.945l2.734-3.61h-2.653v-1.257h4.657v.919z" fill="#000"/><path d="m53.5 327.5h-5" stroke="#888"/><path d="m53.5 284.5h-5" stroke="#888"/><path d="m53.5 241.5h-5" stroke="#888"/><path d="m53.5 198.5h-5" stroke="#888"/><path d="m53.5 156.5h-5" stroke="#888"/><path d="m53.5 113.5h-5" stroke="#888"/><path d="m53.5 70.5h-5" stroke="#888"/><path d="m53.5 27.5h-5" stroke="#888"/><path d="m25.5488 326.468c0 1.058-.1806 1.844-.542 2.358-.3613.514-.9261.772-1.6943.772-.7585 0-1.32-.251-1.6846-.752-.3646-.505-.5534-1.257-.5664-2.256v-1.206c0-1.045.1807-1.822.542-2.329.3613-.508.9277-.762 1.6992-.762.765 0 1.3282.246 1.6895.737.3613.489.5469 1.244.5566 2.266zm-.9033-1.236c0-.765-.1074-1.321-.3223-1.67-.2148-.351-.555-.527-1.0205-.527-.4622 0-.7991.174-1.0107.523-.2116.348-.3206.883-.3272 1.606v1.445c0 .769.1107 1.337.3321 1.704.2246.365.5631.547 1.0156.547.446 0 .7764-.172.9912-.517.2181-.345.332-.889.3418-1.631zm2.1729 3.794c0-.156.0455-.286.1367-.39.0944-.104.2344-.157.4199-.157s.3255.053.4199.157c.0977.104.1465.234.1465.39 0 .15-.0488.275-.1465.376-.0944.101-.2344.152-.4199.152s-.3255-.051-.4199-.152c-.0912-.101-.1367-.226-.1367-.376zm6.8359-4.78c0 .355-.0944.671-.2832.947-.1856.277-.4378.494-.7568.65.3711.159.664.392.8789.698.2181.306.3271.653.3271 1.04 0 .615-.2083 1.105-.625 1.47-.4134.364-.9586.547-1.6357.547-.6836 0-1.2321-.183-1.6455-.547-.4102-.368-.6153-.858-.6153-1.47 0-.384.1042-.731.3125-1.04.2116-.309.503-.544.8741-.703-.3158-.156-.5648-.373-.7471-.65-.1823-.276-.2735-.59-.2735-.942 0-.599.1921-1.074.5762-1.426.3841-.351.8903-.527 1.5186-.527.625 0 1.1295.176 1.5136.527.3874.352.5811.827.5811 1.426zm-.7373 3.316c0-.398-.127-.722-.3809-.972-.2506-.251-.5794-.376-.9863-.376s-.734.124-.9814.371c-.2442.247-.3663.573-.3663.977 0 .403.1189.721.3565.952.2409.231.5745.346 1.001.346.4231 0 .7552-.115.9961-.346.2408-.235.3613-.552.3613-.952zm-1.3574-4.527c-.3548 0-.6429.111-.8643.332-.2181.218-.3271.516-.3271.894 0 .361.1074.654.3222.879.2181.221.5078.332.8692.332.3613 0 .6494-.111.8642-.332.2181-.225.3272-.518.3272-.879 0-.362-.1123-.656-.3369-.884s-.5095-.342-.8545-.342zm6.3672 6.465h-.9082v-6.021l-1.8213.669v-.82l2.5879-.972h.1416zm3.0615-3.564.3613-3.545h3.6426v.835h-2.876l-.2148 1.938c.3483-.205.7438-.308 1.1865-.308.6478 0 1.1621.215 1.543.645.3808.426.5712 1.004.5712 1.733 0 .733-.1985 1.311-.5957 1.734-.3938.42-.9456.63-1.6552.63-.6283 0-1.141-.174-1.5381-.523-.3971-.348-.6234-.83-.6787-1.445h.8545c.0553.407.2002.714.4345.923.2344.205.5437.307.9278.307.4199 0 .7487-.143.9863-.429.2409-.287.3613-.682.3613-1.187 0-.475-.1302-.856-.3906-1.142-.2572-.29-.6006-.435-1.0303-.435-.3939 0-.7031.086-.9277.259l-.2393.195z" fill="#000"/><path d="m25.5488 283.611c0 1.058-.1806 1.844-.542 2.358-.3613.514-.9261.771-1.6943.771-.7585 0-1.32-.25-1.6846-.751-.3646-.505-.5534-1.257-.5664-2.256v-1.206c0-1.045.1807-1.822.542-2.329.3613-.508.9277-.762 1.6992-.762.765 0 1.3282.246 1.6895.737.3613.488.5469 1.244.5566 2.266zm-.9033-1.236c0-.765-.1074-1.321-.3223-1.67-.2148-.351-.555-.527-1.0205-.527-.4622 0-.7991.174-1.0107.522-.2116.349-.3206.884-.3272 1.607v1.445c0 .768.1107 1.336.3321 1.704.2246.365.5631.547 1.0156.547.446 0 .7764-.172.9912-.517.2181-.345.332-.889.3418-1.631zm2.1729 3.794c0-.156.0455-.286.1367-.39.0944-.105.2344-.157.4199-.157s.3255.052.4199.157c.0977.104.1465.234.1465.39 0 .15-.0488.275-.1465.376-.0944.101-.2344.152-.4199.152s-.3255-.051-.4199-.152c-.0912-.101-.1367-.226-.1367-.376zm6.8359-4.78c0 .355-.0944.67-.2832.947-.1856.277-.4378.493-.7568.65.3711.159.664.392.8789.698.2181.306.3271.653.3271 1.04 0 .615-.2083 1.105-.625 1.47-.4134.364-.9586.546-1.6357.546-.6836 0-1.2321-.182-1.6455-.546-.4102-.368-.6153-.858-.6153-1.47 0-.384.1042-.731.3125-1.04.2116-.309.503-.544.8741-.703-.3158-.157-.5648-.373-.7471-.65-.1823-.276-.2735-.591-.2735-.942 0-.599.1921-1.074.5762-1.426.3841-.351.8903-.527 1.5186-.527.625 0 1.1295.176 1.5136.527.3874.352.5811.827.5811 1.426zm-.7373 3.315c0-.397-.127-.721-.3809-.971-.2506-.251-.5794-.376-.9863-.376s-.734.123-.9814.371c-.2442.247-.3663.573-.3663.976 0 .404.1189.721.3565.952.2409.232.5745.347 1.001.347.4231 0 .7552-.115.9961-.347.2408-.234.3613-.551.3613-.952zm-1.3574-4.526c-.3548 0-.6429.111-.8643.332-.2181.218-.3271.516-.3271.894 0 .361.1074.654.3222.878.2181.222.5078.333.8692.333.3613 0 .6494-.111.8642-.333.2181-.224.3272-.517.3272-.878 0-.362-.1123-.656-.3369-.884s-.5095-.342-.8545-.342zm8.0566 6.465h-4.6582v-.65l2.4609-2.734c.3646-.413.6153-.749.752-1.006.14-.26.21-.529.21-.805 0-.372-.1123-.676-.337-.914-.2246-.237-.524-.356-.8984-.356-.4492 0-.7991.129-1.0498.386-.2474.254-.3711.608-.3711 1.064h-.9033c0-.654.2099-1.183.6299-1.587.4231-.403.9879-.605 1.6943-.605.6608 0 1.1833.174 1.5674.522.3841.345.5762.806.5762 1.382 0 .7-.446 1.533-1.3379 2.5l-1.9043 2.066h3.5693zm5.415-3.032c0 1.058-.1806 1.844-.5419 2.358-.3614.514-.9261.771-1.6944.771-.7584 0-1.32-.25-1.6845-.751-.3646-.505-.5534-1.257-.5665-2.256v-1.206c0-1.045.1807-1.822.542-2.329.3614-.508.9278-.762 1.6993-.762.7649 0 1.3281.246 1.6894.737.3613.488.5469 1.244.5566 2.266zm-.9033-1.236c0-.765-.1074-1.321-.3222-1.67-.2149-.351-.555-.527-1.0205-.527-.4623 0-.7992.174-1.0108.522-.2116.349-.3206.884-.3271 1.607v1.445c0 .768.1106 1.336.332 1.704.2246.365.5631.547 1.0156.547.446 0 .7764-.172.9912-.517.2181-.345.3321-.889.3418-1.631z" fill="#000"/><path d="m25.5488 240.753c0 1.058-.1806 1.844-.542 2.359-.3613.514-.9261.771-1.6943.771-.7585 0-1.32-.25-1.6846-.752-.3646-.504-.5534-1.256-.5664-2.256v-1.206c0-1.044.1807-1.821.542-2.329.3613-.507.9277-.761 1.6992-.761.765 0 1.3282.245 1.6895.737.3613.488.5469 1.243.5566 2.266zm-.9033-1.235c0-.765-.1074-1.322-.3223-1.67-.2148-.351-.555-.527-1.0205-.527-.4622 0-.7991.174-1.0107.522-.2116.349-.3206.884-.3272 1.607v1.445c0 .768.1107 1.336.3321 1.704.2246.365.5631.547 1.0156.547.446 0 .7764-.173.9912-.518.2181-.345.332-.888.3418-1.63zm2.1729 3.794c0-.156.0455-.286.1367-.391.0944-.104.2344-.156.4199-.156s.3255.052.4199.156c.0977.105.1465.235.1465.391 0 .15-.0488.275-.1465.376-.0944.101-.2344.151-.4199.151s-.3255-.05-.4199-.151c-.0912-.101-.1367-.226-.1367-.376zm6.8359-4.78c0 .355-.0944.67-.2832.947-.1856.277-.4378.493-.7568.649.3711.16.664.393.8789.699.2181.306.3271.652.3271 1.04 0 .615-.2083 1.105-.625 1.469-.4134.365-.9586.547-1.6357.547-.6836 0-1.2321-.182-1.6455-.547-.4102-.367-.6153-.857-.6153-1.469 0-.384.1042-.731.3125-1.04.2116-.31.503-.544.8741-.703-.3158-.157-.5648-.373-.7471-.65s-.2735-.591-.2735-.942c0-.599.1921-1.074.5762-1.426s.8903-.527 1.5186-.527c.625 0 1.1295.175 1.5136.527.3874.352.5811.827.5811 1.426zm-.7373 3.315c0-.397-.127-.721-.3809-.972-.2506-.25-.5794-.375-.9863-.375s-.734.123-.9814.371c-.2442.247-.3663.573-.3663.976 0 .404.1189.721.3565.952.2409.231.5745.347 1.001.347.4231 0 .7552-.116.9961-.347.2408-.234.3613-.551.3613-.952zm-1.3574-4.526c-.3548 0-.6429.11-.8643.332-.2181.218-.3271.516-.3271.893 0 .362.1074.655.3222.879.2181.222.5078.332.8692.332.3613 0 .6494-.11.8642-.332.2181-.224.3272-.517.3272-.879 0-.361-.1123-.656-.3369-.883-.2246-.228-.5095-.342-.8545-.342zm8.0566 6.465h-4.6582v-.65l2.4609-2.734c.3646-.414.6153-.749.752-1.006.14-.26.21-.529.21-.806 0-.371-.1123-.675-.337-.913-.2246-.237-.524-.356-.8984-.356-.4492 0-.7991.128-1.0498.386-.2474.253-.3711.608-.3711 1.064h-.9033c0-.654.2099-1.183.6299-1.587.4231-.404.9879-.605 1.6943-.605.6608 0 1.1833.174 1.5674.522.3841.345.5762.806.5762 1.382 0 .7-.446 1.533-1.3379 2.5l-1.9043 2.065h3.5693zm1.3721-3.565.3613-3.545h3.6426v.835h-2.876l-.2148 1.939c.3483-.205.7438-.308 1.1865-.308.6478 0 1.1621.215 1.543.645.3808.426.5712 1.004.5712 1.733 0 .732-.1985 1.31-.5957 1.733-.3938.42-.9456.63-1.6552.63-.6283 0-1.141-.174-1.5381-.522s-.6234-.83-.6787-1.445h.8545c.0553.406.2002.714.4345.922.2344.205.5437.308.9278.308.4199 0 .7487-.143.9863-.43.2409-.286.3613-.682.3613-1.186 0-.475-.1302-.856-.3906-1.143-.2572-.29-.6006-.434-1.0303-.434-.3939 0-.7031.086-.9277.258l-.2393.196z" fill="#000"/><path d="m25.5488 197.896c0 1.058-.1806 1.844-.542 2.359-.3613.514-.9261.771-1.6943.771-.7585 0-1.32-.251-1.6846-.752-.3646-.504-.5534-1.256-.5664-2.256v-1.206c0-1.045.1807-1.821.542-2.329s.9277-.762 1.6992-.762c.765 0 1.3282.246 1.6895.738.3613.488.5469 1.243.5566 2.265zm-.9033-1.235c0-.765-.1074-1.322-.3223-1.67-.2148-.352-.555-.527-1.0205-.527-.4622 0-.7991.174-1.0107.522s-.3206.884-.3272 1.607v1.445c0 .768.1107 1.336.3321 1.704.2246.365.5631.547 1.0156.547.446 0 .7764-.173.9912-.518.2181-.345.332-.888.3418-1.631zm2.1729 3.794c0-.156.0455-.287.1367-.391.0944-.104.2344-.156.4199-.156s.3255.052.4199.156c.0977.104.1465.235.1465.391 0 .15-.0488.275-.1465.376-.0944.101-.2344.151-.4199.151s-.3255-.05-.4199-.151c-.0912-.101-.1367-.226-.1367-.376zm6.8359-4.78c0 .354-.0944.67-.2832.947-.1856.277-.4378.493-.7568.649.3711.16.664.392.8789.698.2181.306.3271.653.3271 1.041 0 .615-.2083 1.105-.625 1.469-.4134.365-.9586.547-1.6357.547-.6836 0-1.2321-.182-1.6455-.547-.4102-.368-.6153-.857-.6153-1.469 0-.385.1042-.731.3125-1.041.2116-.309.503-.543.8741-.703-.3158-.156-.5648-.372-.7471-.649s-.2735-.591-.2735-.942c0-.599.1921-1.075.5762-1.426.3841-.352.8903-.528 1.5186-.528.625 0 1.1295.176 1.5136.528.3874.351.5811.827.5811 1.426zm-.7373 3.315c0-.397-.127-.721-.3809-.972-.2506-.25-.5794-.376-.9863-.376s-.734.124-.9814.371c-.2442.248-.3663.573-.3663.977s.1189.721.3565.952c.2409.231.5745.347 1.001.347.4231 0 .7552-.116.9961-.347.2408-.234.3613-.552.3613-.952zm-1.3574-4.526c-.3548 0-.6429.11-.8643.332-.2181.218-.3271.516-.3271.893 0 .362.1074.655.3222.879.2181.221.5078.332.8692.332.3613 0 .6494-.111.8642-.332.2181-.224.3272-.517.3272-.879 0-.361-.1123-.656-.3369-.884-.2246-.227-.5095-.341-.8545-.341zm4.7119 2.47h.6787c.4264-.006.7617-.118 1.0059-.337.2441-.218.3662-.512.3662-.883 0-.834-.4151-1.25-1.2452-1.25-.3906 0-.7031.112-.9375.337-.2311.221-.3466.515-.3466.883h-.9034c0-.563.2051-1.03.6153-1.401.4134-.374.9375-.562 1.5722-.562.6706 0 1.1963.178 1.5772.533.3809.354.5713.848.5713 1.479 0 .309-.1009.609-.3027.899-.1986.289-.4704.506-.8155.649.3906.124.6918.329.9033.615.2149.287.3223.637.3223 1.05 0 .638-.2083 1.144-.625 1.519-.4167.374-.9587.561-1.626.561s-1.2109-.181-1.6308-.542c-.4167-.361-.625-.838-.625-1.431h.9082c0 .375.122.674.3662.899.2441.225.5713.337.9814.337.4362 0 .7699-.114 1.001-.342s.3467-.555.3467-.981c0-.414-.127-.731-.3809-.953-.2539-.221-.6201-.335-1.0986-.341h-.6787zm8.7597.962c0 1.058-.1806 1.844-.5419 2.359-.3614.514-.9261.771-1.6944.771-.7584 0-1.32-.251-1.6845-.752-.3646-.504-.5534-1.256-.5665-2.256v-1.206c0-1.045.1807-1.821.542-2.329.3614-.508.9278-.762 1.6993-.762.7649 0 1.3281.246 1.6894.738.3613.488.5469 1.243.5566 2.265zm-.9033-1.235c0-.765-.1074-1.322-.3222-1.67-.2149-.352-.555-.527-1.0205-.527-.4623 0-.7992.174-1.0108.522s-.3206.884-.3271 1.607v1.445c0 .768.1106 1.336.332 1.704.2246.365.5631.547 1.0156.547.446 0 .7764-.173.9912-.518.2181-.345.3321-.888.3418-1.631z" fill="#000"/><path d="m25.5488 155.039c0 1.058-.1806 1.844-.542 2.359-.3613.514-.9261.771-1.6943.771-.7585 0-1.32-.25-1.6846-.752-.3646-.504-.5534-1.256-.5664-2.256v-1.206c0-1.045.1807-1.821.542-2.329s.9277-.761 1.6992-.761c.765 0 1.3282.245 1.6895.737.3613.488.5469 1.243.5566 2.265zm-.9033-1.235c0-.765-.1074-1.322-.3223-1.67-.2148-.352-.555-.527-1.0205-.527-.4622 0-.7991.174-1.0107.522s-.3206.884-.3272 1.607v1.445c0 .768.1107 1.336.3321 1.704.2246.365.5631.547 1.0156.547.446 0 .7764-.173.9912-.518.2181-.345.332-.888.3418-1.631zm2.1729 3.794c0-.156.0455-.287.1367-.391.0944-.104.2344-.156.4199-.156s.3255.052.4199.156c.0977.104.1465.235.1465.391 0 .15-.0488.275-.1465.376-.0944.101-.2344.151-.4199.151s-.3255-.05-.4199-.151c-.0912-.101-.1367-.226-.1367-.376zm6.8359-4.78c0 .354-.0944.67-.2832.947-.1856.277-.4378.493-.7568.649.3711.16.664.393.8789.699.2181.306.3271.652.3271 1.04 0 .615-.2083 1.105-.625 1.469-.4134.365-.9586.547-1.6357.547-.6836 0-1.2321-.182-1.6455-.547-.4102-.368-.6153-.857-.6153-1.469 0-.385.1042-.731.3125-1.04.2116-.31.503-.544.8741-.704-.3158-.156-.5648-.372-.7471-.649s-.2735-.591-.2735-.942c0-.599.1921-1.075.5762-1.426.3841-.352.8903-.527 1.5186-.527.625 0 1.1295.175 1.5136.527.3874.351.5811.827.5811 1.426zm-.7373 3.315c0-.397-.127-.721-.3809-.972-.2506-.25-.5794-.376-.9863-.376s-.734.124-.9814.371c-.2442.248-.3663.573-.3663.977s.1189.721.3565.952c.2409.231.5745.347 1.001.347.4231 0 .7552-.116.9961-.347.2408-.234.3613-.552.3613-.952zm-1.3574-4.526c-.3548 0-.6429.11-.8643.332-.2181.218-.3271.516-.3271.893 0 .362.1074.655.3222.879.2181.222.5078.332.8692.332.3613 0 .6494-.11.8642-.332.2181-.224.3272-.517.3272-.879 0-.361-.1123-.656-.3369-.884-.2246-.227-.5095-.341-.8545-.341zm4.7119 2.47h.6787c.4264-.006.7617-.118 1.0059-.337.2441-.218.3662-.512.3662-.883 0-.834-.4151-1.25-1.2452-1.25-.3906 0-.7031.112-.9375.337-.2311.221-.3466.516-.3466.883h-.9034c0-.563.2051-1.03.6153-1.401.4134-.374.9375-.561 1.5722-.561.6706 0 1.1963.177 1.5772.532s.5713.848.5713 1.479c0 .309-.1009.609-.3027.899-.1986.289-.4704.506-.8155.649.3906.124.6918.329.9033.615.2149.287.3223.637.3223 1.05 0 .638-.2083 1.144-.625 1.519-.4167.374-.9587.561-1.626.561s-1.2109-.18-1.6308-.542c-.4167-.361-.625-.838-.625-1.43h.9082c0 .374.122.673.3662.898.2441.225.5713.337.9814.337.4362 0 .7699-.114 1.001-.342s.3467-.555.3467-.981c0-.414-.127-.731-.3809-.953-.2539-.221-.6201-.335-1.0986-.341h-.6787zm4.7168.43.3613-3.545h3.6426v.835h-2.876l-.2148 1.939c.3483-.205.7438-.308 1.1865-.308.6478 0 1.1621.215 1.543.645.3808.426.5712 1.004.5712 1.733 0 .732-.1985 1.31-.5957 1.733-.3938.42-.9456.63-1.6552.63-.6283 0-1.141-.174-1.5381-.522-.3971-.349-.6234-.83-.6787-1.446h.8545c.0553.407.2002.715.4345.923.2344.205.5437.308.9278.308.4199 0 .7487-.143.9863-.43.2409-.286.3613-.682.3613-1.186 0-.476-.1302-.856-.3906-1.143-.2572-.29-.6006-.434-1.0303-.434-.3939 0-.7031.086-.9277.258l-.2393.196z" fill="#000"/><path d="m25.5488 112.182c0 1.058-.1806 1.844-.542 2.359-.3613.514-.9261.771-1.6943.771-.7585 0-1.32-.251-1.6846-.752-.3646-.504-.5534-1.256-.5664-2.256v-1.206c0-1.045.1807-1.821.542-2.329s.9277-.762 1.6992-.762c.765 0 1.3282.246 1.6895.738.3613.488.5469 1.243.5566 2.265zm-.9033-1.235c0-.765-.1074-1.322-.3223-1.67-.2148-.352-.555-.527-1.0205-.527-.4622 0-.7991.174-1.0107.522s-.3206.884-.3272 1.606v1.446c0 .768.1107 1.336.3321 1.704.2246.364.5631.547 1.0156.547.446 0 .7764-.173.9912-.518.2181-.345.332-.889.3418-1.631zm2.1729 3.794c0-.157.0455-.287.1367-.391.0944-.104.2344-.156.4199-.156s.3255.052.4199.156c.0977.104.1465.234.1465.391 0 .149-.0488.275-.1465.376-.0944.101-.2344.151-.4199.151s-.3255-.05-.4199-.151c-.0912-.101-.1367-.227-.1367-.376zm6.8359-4.781c0 .355-.0944.671-.2832.948-.1856.276-.4378.493-.7568.649.3711.16.664.392.8789.698.2181.306.3271.653.3271 1.04 0 .616-.2083 1.106-.625 1.47-.4134.365-.9586.547-1.6357.547-.6836 0-1.2321-.182-1.6455-.547-.4102-.368-.6153-.858-.6153-1.47 0-.384.1042-.73.3125-1.04.2116-.309.503-.543.8741-.703-.3158-.156-.5648-.372-.7471-.649s-.2735-.591-.2735-.943c0-.599.1921-1.074.5762-1.425.3841-.352.8903-.528 1.5186-.528.625 0 1.1295.176 1.5136.528.3874.351.5811.826.5811 1.425zm-.7373 3.316c0-.397-.127-.721-.3809-.972-.2506-.25-.5794-.376-.9863-.376s-.734.124-.9814.371c-.2442.248-.3663.573-.3663.977s.1189.721.3565.952c.2409.231.5745.347 1.001.347.4231 0 .7552-.116.9961-.347.2408-.234.3613-.552.3613-.952zm-1.3574-4.526c-.3548 0-.6429.11-.8643.332-.2181.218-.3271.515-.3271.893 0 .361.1074.654.3222.879.2181.221.5078.332.8692.332.3613 0 .6494-.111.8642-.332.2181-.225.3272-.518.3272-.879s-.1123-.656-.3369-.884-.5095-.341-.8545-.341zm7.2119 4.077h.9863v.737h-.9863v1.65h-.9082v-1.65h-3.2373v-.532l3.1836-4.927h.9619zm-3.1201 0h2.2119v-3.487l-.1074.196zm9.3798-.645c0 1.058-.1806 1.844-.5419 2.359-.3614.514-.9261.771-1.6944.771-.7584 0-1.32-.251-1.6845-.752-.3646-.504-.5534-1.256-.5665-2.256v-1.206c0-1.045.1807-1.821.542-2.329.3614-.508.9278-.762 1.6993-.762.7649 0 1.3281.246 1.6894.738.3613.488.5469 1.243.5566 2.265zm-.9033-1.235c0-.765-.1074-1.322-.3222-1.67-.2149-.352-.555-.527-1.0205-.527-.4623 0-.7992.174-1.0108.522s-.3206.884-.3271 1.606v1.446c0 .768.1106 1.336.332 1.704.2246.364.5631.547 1.0156.547.446 0 .7764-.173.9912-.518.2181-.345.3321-.889.3418-1.631z" fill="#000"/><path d="m25.5488 69.325c0 1.0579-.1806 1.844-.542 2.3583-.3613.5144-.9261.7715-1.6943.7715-.7585 0-1.32-.2506-1.6846-.7519-.3646-.5046-.5534-1.2565-.5664-2.2559v-1.206c0-1.045.1807-1.8213.542-2.3291s.9277-.7618 1.6992-.7618c.765 0 1.3282.2458 1.6895.7374.3613.4882.5469 1.2434.5566 2.2656zm-.9033-1.2354c0-.765-.1074-1.3216-.3223-1.6699-.2148-.3516-.555-.5274-1.0205-.5274-.4622 0-.7991.1742-1.0107.5225s-.3206.8838-.3272 1.6064v1.4454c0 .7682.1107 1.3362.3321 1.7041.2246.3645.5631.5468 1.0156.5468.446 0 .7764-.1725.9912-.5175.2181-.3451.332-.8887.3418-1.6309zm2.1729 3.7939c0-.1562.0455-.2864.1367-.3906.0944-.1041.2344-.1562.4199-.1562s.3255.0521.4199.1562c.0977.1042.1465.2344.1465.3906 0 .1498-.0488.2751-.1465.376-.0944.1009-.2344.1514-.4199.1514s-.3255-.0505-.4199-.1514c-.0912-.1009-.1367-.2262-.1367-.376zm6.8359-4.7802c0 .3548-.0944.6705-.2832.9472-.1856.2767-.4378.4932-.7568.6495.3711.1595.664.3922.8789.6982.2181.306.3271.6527.3271 1.04 0 .6153-.2083 1.1052-.625 1.4698-.4134.3645-.9586.5468-1.6357.5468-.6836 0-1.2321-.1823-1.6455-.5468-.4102-.3679-.6153-.8578-.6153-1.4698 0-.3841.1042-.7308.3125-1.04.2116-.3093.503-.5436.8741-.7031-.3158-.1563-.5648-.3728-.7471-.6494-.1823-.2767-.2735-.5909-.2735-.9424 0-.599.1921-1.0742.5762-1.4258s.8903-.5274 1.5186-.5274c.625 0 1.1295.1758 1.5136.5274.3874.3516.5811.8268.5811 1.4258zm-.7373 3.3154c0-.3971-.127-.721-.3809-.9717-.2506-.2506-.5794-.376-.9863-.376s-.734.1237-.9814.3711c-.2442.2474-.3663.573-.3663.9766s.1189.721.3565.9521c.2409.2312.5745.3467 1.001.3467.4231 0 .7552-.1155.9961-.3467.2408-.2343.3613-.5517.3613-.9521zm-1.3574-4.5264c-.3548 0-.6429.1107-.8643.3321-.2181.2181-.3271.5159-.3271.8935 0 .3613.1074.6543.3222.8789.2181.2214.5078.3321.8692.3321.3613 0 .6494-.1107.8642-.3321.2181-.2246.3272-.5176.3272-.8789s-.1123-.6559-.3369-.8838c-.2246-.2278-.5095-.3418-.8545-.3418zm7.2119 4.0772h.9863v.7373h-.9863v1.6504h-.9082v-1.6504h-3.2373v-.5322l3.1836-4.9268h.9619zm-3.1201 0h2.2119v-3.4863l-.1074.1953zm5.3369-1.1768.3613-3.5449h3.6426v.835h-2.876l-.2148 1.9384c.3483-.205.7438-.3076 1.1865-.3076.6478 0 1.1621.2149 1.543.6446.3808.4264.5712 1.0042.5712 1.7334 0 .7324-.1985 1.3102-.5957 1.7334-.3938.4199-.9456.6298-1.6552.6298-.6283 0-1.141-.1741-1.5381-.5224s-.6234-.8301-.6787-1.4453h.8545c.0553.4069.2002.7145.4345.9228.2344.2051.5437.3076.9278.3076.4199 0 .7487-.1432.9863-.4297.2409-.2864.3613-.6819.3613-1.1865 0-.4752-.1302-.8561-.3906-1.1426-.2572-.2897-.6006-.4345-1.0303-.4345-.3939 0-.7031.0862-.9277.2588l-.2393.1953z" fill="#000"/><path d="m25.5488 26.4678c0 1.0579-.1806 1.844-.542 2.3584-.3613.5143-.9261.7715-1.6943.7715-.7585 0-1.32-.2507-1.6846-.752-.3646-.5046-.5534-1.2565-.5664-2.2559v-1.206c0-1.0449.1807-1.8213.542-2.3291s.9277-.7617 1.6992-.7617c.765 0 1.3282.2457 1.6895.7373.3613.4883.5469 1.2435.5566 2.2656zm-.9033-1.2354c0-.765-.1074-1.3216-.3223-1.6699-.2148-.3516-.555-.5273-1.0205-.5273-.4622 0-.7991.1741-1.0107.5224s-.3206.8838-.3272 1.6065v1.4453c0 .7682.1107 1.3362.3321 1.7041.2246.3646.5631.5469 1.0156.5469.446 0 .7764-.1726.9912-.5176.2181-.3451.332-.8887.3418-1.6309zm2.1729 3.794c0-.1563.0455-.2865.1367-.3907.0944-.1041.2344-.1562.4199-.1562s.3255.0521.4199.1562c.0977.1042.1465.2344.1465.3907 0 .1497-.0488.275-.1465.3759-.0944.101-.2344.1514-.4199.1514s-.3255-.0504-.4199-.1514c-.0912-.1009-.1367-.2262-.1367-.3759zm6.8359-4.7803c0 .3548-.0944.6706-.2832.9473-.1856.2767-.4378.4931-.7568.6494.3711.1595.664.3922.8789.6982.2181.306.3271.6527.3271 1.0401 0 .6152-.2083 1.1051-.625 1.4697-.4134.3646-.9586.5469-1.6357.5469-.6836 0-1.2321-.1823-1.6455-.5469-.4102-.3679-.6153-.8578-.6153-1.4697 0-.3842.1042-.7308.3125-1.0401.2116-.3092.503-.5436.8741-.7031-.3158-.1563-.5648-.3727-.7471-.6494s-.2735-.5908-.2735-.9424c0-.599.1921-1.0742.5762-1.4258.3841-.3515.8903-.5273 1.5186-.5273.625 0 1.1295.1758 1.5136.5273.3874.3516.5811.8268.5811 1.4258zm-.7373 3.3154c0-.3971-.127-.721-.3809-.9717-.2506-.2506-.5794-.3759-.9863-.3759s-.734.1237-.9814.3711c-.2442.2474-.3663.5729-.3663.9765 0 .4037.1189.7211.3565.9522.2409.2311.5745.3467 1.001.3467.4231 0 .7552-.1156.9961-.3467.2408-.2344.3613-.5518.3613-.9522zm-1.3574-4.5263c-.3548 0-.6429.1106-.8643.332-.2181.2181-.3271.5159-.3271.8935 0 .3614.1074.6543.3222.8789.2181.2214.5078.3321.8692.3321.3613 0 .6494-.1107.8642-.3321.2181-.2246.3272-.5175.3272-.8789 0-.3613-.1123-.6559-.3369-.8837-.2246-.2279-.5095-.3418-.8545-.3418zm3.8134 2.9003.3614-3.5449h3.6426v.835h-2.876l-.2149 1.9385c.3483-.2051.7438-.3077 1.1866-.3077.6477 0 1.1621.2149 1.5429.6446.3809.4264.5713 1.0042.5713 1.7334 0 .7324-.1986 1.3102-.5957 1.7334-.3939.4199-.9456.6299-1.6553.6299-.6282 0-1.1409-.1742-1.538-.5225-.3972-.3483-.6234-.8301-.6788-1.4453h.8545c.0554.4069.2002.7145.4346.9228.2344.2051.5436.3077.9277.3077.42 0 .7487-.1433.9864-.4297.2409-.2865.3613-.682.3613-1.1866 0-.4752-.1302-.8561-.3906-1.1425-.2572-.2898-.6006-.4346-1.0303-.4346-.3939 0-.7031.0863-.9277.2588l-.2393.1953zm9.6582.5323c0 1.0579-.1806 1.844-.5419 2.3584-.3614.5143-.9261.7715-1.6944.7715-.7584 0-1.32-.2507-1.6845-.752-.3646-.5046-.5534-1.2565-.5665-2.2559v-1.206c0-1.0449.1807-1.8213.542-2.3291.3614-.5078.9278-.7617 1.6993-.7617.7649 0 1.3281.2457 1.6894.7373.3613.4883.5469 1.2435.5566 2.2656zm-.9033-1.2354c0-.765-.1074-1.3216-.3222-1.6699-.2149-.3516-.555-.5273-1.0205-.5273-.4623 0-.7992.1741-1.0108.5224s-.3206.8838-.3271 1.6065v1.4453c0 .7682.1106 1.3362.332 1.7041.2246.3646.5631.5469 1.0156.5469.446 0 .7764-.1726.9912-.5176.2181-.3451.3321-.8887.3418-1.6309z" fill="#000"/><path d="m53.5 327.5v-300" stroke="#888"/><path d="m11.5161 270.646c-.5765 0-1.0903-.111-1.54149-.334-.45117-.222-.80029-.54-1.04736-.956-.24707-.418-.37061-.904-.37061-1.455 0-.784.23991-1.423.71973-1.918.47981-.497 1.13153-.775 1.95503-.832l.3975-.011c.8916 0 1.6078.249 2.1484.747.5372.497.8057 1.165.8057 2.003s-.2685 1.508-.8057 2.009c-.5371.498-1.2675.747-2.1914.747zm.1128-1.553c.5514 0 .974-.104 1.2676-.311.29-.208.435-.505.435-.892 0-.376-.1432-.669-.4296-.881-.2901-.211-.752-.317-1.3858-.317-.5407 0-.9596.106-1.2568.317-.29722.212-.44582.509-.44582.892 0 .379.1486.673.44582.881.2936.207.7501.311 1.3696.311zm-2.96484-6.338.67139-.048c-.51921-.415-.77881-.972-.77881-1.67 0-.616.18083-1.075.54248-1.375.36165-.301.90238-.455 1.62208-.462h3.7544v1.552h-3.7168c-.3294 0-.5676.072-.7144.215-.15036.143-.22555.381-.22555.714 0 .437.18615.765.55855.983h4.0982v1.552h-5.81154zm3.08834-7.755v3.023h-1.2514v-3.023zm-.2255-1.005c-.906 0-1.62749-.202-2.1646-.607-.5371-.408-.80566-.965-.80566-1.67 0-.566.21126-1.033.63379-1.402h-2.96484v-1.558h8.25001v1.402l-.6177.075c.4834.387.7251.885.7251 1.494 0 .683-.2685 1.233-.8057 1.648-.5406.412-1.2908.618-2.2504.618zm.1127-1.552c.5443 0 .9615-.095 1.2515-.285.2901-.19.4351-.465.4351-.827 0-.48-.2023-.818-.607-1.015h-2.2934c-.4046.193-.60695.528-.60695 1.004 0 .749.60695 1.123 1.82075 1.123zm2.9434-7.563c0 .853-.2614 1.547-.7842 2.084-.5228.534-1.2192.801-2.0893.801h-.1504c-.5837 0-1.1047-.113-1.56301-.339-.46191-.225-.8164-.544-1.06347-.956-.25065-.415-.37598-.888-.37598-1.418 0-.795.25065-1.42.75195-1.874.50131-.459 1.21211-.688 2.13231-.688h.6338v3.701c.3796-.05.6839-.201.9131-.451.2292-.254.3437-.575.3437-.962 0-.598-.2166-1.065-.6499-1.402l.854-.762c.3295.233.5873.548.7735.945.1826.398.2739.838.2739 1.321zm-4.76952.178c0 .308.10384.558.31152.752.2077.189.5049.311.8916.365v-2.159h-.1235c-.3438.007-.6088.1-.795.279-.18973.179-.28462.433-.28462.763zm2.76612-5.554-3.91554-1.08v-1.622l5.81154 1.961v1.482l-5.81154 1.961v-1.623zm1.896-5.027v1.557h-5.81154v-1.557zm-7.31544 1.648c-.23275 0-.42432-.076-.57471-.23-.15039-.158-.22559-.371-.22559-.64 0-.265.0752-.476.22559-.633.15039-.158.34196-.237.57471-.237.23632 0 .42968.081.58007.242.1504.158.22559.367.22559.628 0 .262-.07519.473-.22559.634-.15039.158-.34375.236-.58007.236zm6.17134-5.349c0-.287-.0787-.519-.2363-.698-.1575-.179-.367-.272-.6284-.28v-1.455c.3939.003.7555.111 1.085.322.3258.211.58.501.7627.87.179.365.2685.77.2685 1.214 0 .831-.2632 1.486-.7895 1.966-.53.48-1.2605.72-2.1914.72h-.1021c-.8952 0-1.60954-.239-2.14307-.715s-.80029-1.13-.80029-1.96c0-.727.20768-1.309.62305-1.746.41178-.44.96141-.664 1.64891-.671v1.455c-.3008.008-.5443.101-.7305.28-.18973.179-.28462.415-.28462.709 0 .361.13248.635.39742.821.2614.183.6875.274 1.2784.274h.1611c.598 0 1.0277-.091 1.2891-.274.2613-.182.392-.46.392-.832zm1.2515-5.994c0 .852-.2614 1.547-.7842 2.084-.5228.533-1.2192.8-2.0893.8h-.1504c-.5837 0-1.1047-.113-1.56301-.338-.46191-.226-.8164-.545-1.06347-.956-.25065-.416-.37598-.888-.37598-1.418 0-.795.25065-1.42.75195-1.875.50131-.458 1.21211-.687 2.13231-.687h.6338v3.7c.3796-.05.6839-.2.9131-.451.2292-.254.3437-.575.3437-.961 0-.598-.2166-1.066-.6499-1.402l.854-.763c.3295.233.5873.548.7735.945.1826.398.2739.838.2739 1.322zm-4.76952.177c0 .308.10384.559.31152.752.2077.19.5049.311.8916.365v-2.159h-.1235c-.3438.007-.6088.1-.795.279-.18973.179-.28462.434-.28462.763zm2.72312-9.185-5.88133-1.772v-1.794l7.82033 2.723v1.681l-7.82033 2.713v-1.789zm-.3169-10.398-5.56443-1.053v-1.606l7.82033 1.735v1.622l-5.23146 1.273 5.23146 1.273v1.622l-7.82033 1.735v-1.606l5.55373-1.058-5.55373-1.289v-1.364zm0-9.625-5.56443-1.053v-1.606l7.82033 1.735v1.622l-5.23146 1.273 5.23146 1.273v1.622l-7.82033 1.735v-1.606l5.55373-1.058-5.55373-1.289v-1.364zm-.6928-5.93c-.906 0-1.62749-.202-2.1646-.607-.5371-.408-.80566-.965-.80566-1.67 0-.566.21126-1.033.63379-1.402h-2.96484v-1.558h8.25001v1.402l-.6177.076c.4834.386.7251.884.7251 1.493 0 .684-.2685 1.233-.8057 1.649-.5406.411-1.2908.617-2.2504.617zm.1127-1.552c.5443 0 .9615-.095 1.2515-.285.2901-.189.4351-.465.4351-.827 0-.48-.2023-.818-.607-1.015h-2.2934c-.4046.193-.60695.528-.60695 1.004 0 .749.60695 1.123 1.82075 1.123zm2.836-8.255c-.1397.071-.3133.123-.521.155.4189.376.6284.865.6284 1.467 0 .569-.1647 1.042-.4941 1.418-.3295.372-.7448.558-1.2461.558-.6159 0-1.0886-.227-1.418-.682-.3294-.458-.4959-1.119-.4995-1.982v-.714h-.333c-.2686 0-.4834.07-.64455.209-.16113.136-.2417.353-.2417.65 0 .262.06267.468.18799.618.12536.147.29716.22.51566.22v1.552c-.3366 0-.64814-.103-.9346-.311s-.51026-.501-.67139-.881c-.16471-.38-.24707-.806-.24707-1.278 0-.716.18083-1.284.54248-1.703.35807-.422.86296-.634 1.51468-.634h2.519c.5514-.003.9686-.08 1.2515-.231h.0913zm-1.0796 1.283c0-.229-.0501-.44-.1504-.633-.1038-.194-.2417-.337-.4136-.43h-.999v.58c0 .777.2686 1.191.8057 1.241l.0913.005c.1933 0 .3527-.068.478-.204s.188-.322.188-.559zm-6.16065-5.672h1.42871v-.993h1.13867v.993h2.90037c.2149 0 .3688-.041.4619-.123s.1397-.24.1397-.473c0-.172-.0125-.324-.0376-.456h1.1763c.0931.304.1396.617.1396.94 0 1.088-.5496 1.643-1.6489 1.665h-3.13137v.848h-1.13867v-.848h-1.42871zm7.24025-5.226c-.1397.072-.3133.124-.521.156.4189.376.6284.865.6284 1.466 0 .57-.1647 1.042-.4941 1.418-.3295.373-.7448.559-1.2461.559-.6159 0-1.0886-.227-1.418-.682-.3294-.458-.4959-1.119-.4995-1.982v-.714h-.333c-.2686 0-.4834.069-.64455.209-.16113.136-.2417.353-.2417.65 0 .261.06267.467.18799.618.12536.146.29716.22.51566.22v1.552c-.3366 0-.64814-.104-.9346-.311-.28646-.208-.51026-.502-.67139-.881-.16471-.38-.24707-.806-.24707-1.279 0-.716.18083-1.283.54248-1.702.35807-.423.86296-.634 1.51468-.634h2.519c.5514-.004.9686-.081 1.2515-.231h.0913zm-1.0796 1.284c0-.229-.0501-.44-.1504-.634-.1038-.193-.2417-.336-.4136-.429h-.999v.58c0 .777.2686 1.19.8057 1.24l.0913.006c.1933 0 .3527-.068.478-.204s.188-.323.188-.559zm-.5264-6.961c-.1897 0-.3383.095-.4458.285-.111.186-.2094.487-.2954.902-.29 1.382-.8773 2.073-1.7617 2.073-.51563 0-.94531-.213-1.28906-.639-.34733-.429-.521-.99-.521-1.681 0-.738.17367-1.327.521-1.767.34733-.444.7985-.666 1.35356-.666v1.552c-.2221 0-.4047.072-.5479.215-.14681.143-.22021.367-.22021.671 0 .262.05908.464.17724.607.11817.144.26857.215.45117.215.1719 0 .3115-.08.4189-.241.1039-.165.1952-.441.274-.828.0752-.386.1611-.712.2578-.977.3008-.82.8218-1.23 1.563-1.23.5299 0 .9596.227 1.289.682.3259.455.4888 1.042.4888 1.762 0 .487-.0859.92-.2578 1.3-.1755.376-.4136.671-.7144.886-.3043.215-.632.322-.9829.322v-1.472c.2757-.014.487-.116.6338-.306s.2202-.444.2202-.762c0-.298-.0555-.521-.1665-.672-.1146-.154-.2632-.231-.4458-.231zm1.7134-5.188c0 .852-.2614 1.547-.7842 2.084-.5228.533-1.2192.8-2.0893.8h-.1504c-.5837 0-1.1047-.113-1.56301-.338-.46191-.226-.8164-.545-1.06347-.956-.25065-.416-.37598-.888-.37598-1.418 0-.795.25065-1.42.75195-1.875.50131-.458 1.21211-.687 2.13231-.687h.6338v3.7c.3796-.05.6839-.2.9131-.451.2292-.254.3437-.575.3437-.961 0-.598-.2166-1.066-.6499-1.402l.854-.763c.3295.233.5873.548.7735.945.1826.398.2739.838.2739 1.322zm-4.76952.177c0 .308.10384.559.31152.752.2077.19.5049.311.8916.365v-2.159h-.1235c-.3438.007-.6088.1-.795.279-.18973.179-.28462.434-.28462.763zm-2.57813-5.312h1.42871v-.994h1.13867v.994h2.90037c.2149 0 .3688-.041.4619-.124.0931-.082.1397-.24.1397-.472 0-.172-.0125-.324-.0376-.457h1.1763c.0931.305.1396.618.1396.94 0 1.089-.5496 1.644-1.6489 1.665h-3.13137v.849h-1.13867v-.849h-1.42871zm0-6.456h1.42871v-.994h1.13867v.994h2.90037c.2149 0 .3688-.041.4619-.124.0931-.082.1397-.24.1397-.472 0-.172-.0125-.324-.0376-.457h1.1763c.0931.304.1396.618.1396.94 0 1.089-.5496 1.644-1.6489 1.665h-3.13137v.849h-1.13867v-.849h-1.42871zm7.34765-4.533c0 .852-.2614 1.547-.7842 2.084-.5228.533-1.2192.8-2.0893.8h-.1504c-.5837 0-1.1047-.113-1.56301-.338-.46191-.226-.8164-.545-1.06347-.956-.25065-.416-.37598-.889-.37598-1.418 0-.795.25065-1.42.75195-1.875.50131-.458 1.21211-.687 2.13231-.687h.6338v3.7c.3796-.05.6839-.2.9131-.451.2292-.254.3437-.575.3437-.961 0-.598-.2166-1.066-.6499-1.402l.854-.763c.3295.233.5873.548.7735.945.1826.398.2739.838.2739 1.322zm-4.76952.177c0 .308.10384.559.31152.752.2077.19.5049.311.8916.365v-2.159h-.1235c-.3438.007-.6088.1-.795.279-.18973.179-.28462.433-.28462.763zm3.05612-6.601c-.1897 0-.3383.095-.4458.285-.111.186-.2094.486-.2954.902-.29 1.382-.8773 2.073-1.7617 2.073-.51563 0-.94531-.213-1.28906-.639-.34733-.43-.521-.99-.521-1.681 0-.738.17367-1.327.521-1.767.34733-.444.7985-.666 1.35356-.666v1.552c-.2221 0-.4047.072-.5479.215-.14681.143-.22021.367-.22021.671 0 .262.05908.464.17724.607.11817.143.26857.215.45117.215.1719 0 .3115-.081.4189-.242.1039-.164.1952-.44.274-.827.0752-.387.1611-.712.2578-.977.3008-.82.8218-1.23 1.563-1.23.5299 0 .9596.227 1.289.682.3259.454.4888 1.042.4888 1.761 0 .487-.0859.921-.2578 1.3-.1755.376-.4136.672-.7144.886-.3043.215-.632.323-.9829.323v-1.472c.2757-.014.487-.116.6338-.306s.2202-.444.2202-.763c0-.297-.0555-.521-.1665-.671-.1146-.154-.2632-.231-.4458-.231zm-5.63425-4.372h1.42871v-.994h1.13867v.994h2.90037c.2149 0 .3688-.041.4619-.124.0931-.082.1397-.24.1397-.472 0-.172-.0125-.324-.0376-.457h1.1763c.0931.304.1396.618.1396.94 0 1.089-.5496 1.644-1.6489 1.665h-3.13137v.849h-1.13867v-.849h-1.42871zm7.24025-7.966c-.1397.072-.3133.124-.521.156.4189.376.6284.865.6284 1.467 0 .569-.1647 1.041-.4941 1.417-.3295.373-.7448.559-1.2461.559-.6159 0-1.0886-.227-1.418-.682-.3294-.458-.4959-1.119-.4995-1.982v-.714h-.333c-.2686 0-.4834.069-.64455.209-.16113.136-.2417.353-.2417.65 0 .261.06267.467.18799.618.12536.147.29716.22.51566.22v1.552c-.3366 0-.64814-.104-.9346-.311-.28646-.208-.51026-.502-.67139-.881-.16471-.38-.24707-.806-.24707-1.279 0-.716.18083-1.283.54248-1.702.35807-.423.86296-.634 1.51468-.634h2.519c.5514-.004.9686-.081 1.2515-.231h.0913zm-1.0796 1.284c0-.229-.0501-.44-.1504-.634-.1038-.193-.2417-.336-.4136-.429h-.999v.58c0 .777.2686 1.19.8057 1.24l.0913.006c.1933 0 .3527-.068.478-.204s.188-.323.188-.559zm-.0645-6.23c0-.287-.0787-.52-.2363-.699-.1575-.179-.367-.272-.6284-.279v-1.455c.3939.003.7555.111 1.085.322.3258.211.58.501.7627.87.179.365.2685.77.2685 1.214 0 .831-.2632 1.486-.7895 1.966-.53.479-1.2605.719-2.1914.719h-.1021c-.8952 0-1.60954-.238-2.14307-.714s-.80029-1.13-.80029-1.96c0-.727.20768-1.309.62305-1.746.41178-.44.96141-.664 1.64891-.671v1.455c-.3008.007-.5443.1-.7305.279-.18973.179-.28462.416-.28462.709 0 .362.13248.636.39742.822.2614.183.6875.274 1.2784.274h.1611c.598 0 1.0277-.091 1.2891-.274.2613-.182.392-.46.392-.832zm0-5.737c0-.286-.0787-.519-.2363-.698-.1575-.179-.367-.272-.6284-.279v-1.456c.3939.004.7555.111 1.085.322.3258.212.58.502.7627.871.179.365.2685.769.2685 1.213 0 .831-.2632 1.486-.7895 1.966-.53.48-1.2605.72-2.1914.72h-.1021c-.8952 0-1.60954-.238-2.14307-.714-.53353-.477-.80029-1.13-.80029-1.961 0-.727.20768-1.309.62305-1.745.41178-.441.96141-.665 1.64891-.672v1.456c-.3008.007-.5443.1-.7305.279-.18973.179-.28462.415-.28462.709 0 .362.13248.636.39742.822.2614.182.6875.274 1.2784.274h.1611c.598 0 1.0277-.092 1.2891-.274.2613-.183.392-.46.392-.833zm.5533-6.799c.4655.383.6982.913.6982 1.589 0 .623-.179 1.1-.5371 1.429-.3581.326-.8827.492-1.5737.5h-3.80814v-1.553h3.75444c.6051 0 .9077-.275.9077-.827 0-.526-.1826-.888-.5479-1.085h-4.11424v-1.557h5.81154v1.461zm-3.7652-5.941c-.0286.211-.0429.398-.0429.559 0 .587.1987.972.5962 1.154h3.8027v1.553h-5.81154v-1.467l.69287-.043c-.53353-.311-.80029-.743-.80029-1.294 0-.172.02328-.333.06982-.483zm4.356-3.9584c-.1397.0716-.3133.1235-.521.1558.4189.3759.6284.8647.6284 1.4663 0 .5693-.1647 1.042-.4941 1.4183-.3295.372-.7448.558-1.2461.558-.6159 0-1.0886-.227-1.418-.682-.3294-.4582-.4959-1.1189-.4995-1.9818v-.7144h-.333c-.2686 0-.4834.0698-.64455.2095-.16113.1361-.2417.3527-.2417.6499 0 .2614.06267.4673.18799.6177.12536.1468.29716.2202.51566.2202v1.5519c-.3366 0-.64814-.104-.9346-.311-.28646-.208-.51026-.5015-.67139-.8811-.16471-.3795-.24707-.8056-.24707-1.2783 0-.7161.18083-1.2837.54248-1.7026.35807-.4225.86296-.6338 1.51468-.6338h2.519c.5514-.0036.9686-.0806 1.2515-.231h.0913zm-1.0796 1.2837c0-.2292-.0501-.4404-.1504-.6338-.1038-.1934-.2417-.3366-.4136-.4297h-.999v.5801c0 .777.2686 1.1906.8057 1.2407l.0913.0054c.1933 0 .3527-.068.478-.2041s.188-.3223.188-.5586zm-.0645-6.2305c0-.2864-.0787-.5192-.2363-.6982-.1575-.1791-.367-.2722-.6284-.2793v-1.4556c.3939.0036.7555.111 1.085.3223.3258.2112.58.5013.7627.8701.179.3652.2685.7699.2685 1.2139 0 .8307-.2632 1.486-.7895 1.9658-.53.4798-1.2605.7197-2.1914.7197h-.1021c-.8952 0-1.60954-.2381-2.14307-.7143-.53353-.4763-.80029-1.1298-.80029-1.9605 0-.7269.20768-1.3087.62305-1.7456.41178-.4404.96141-.6642 1.64891-.6714v1.4556c-.3008.0071-.5443.1002-.7305.2793-.18973.179-.28462.4153-.28462.709 0 .3616.13248.6355.39742.8217.2614.1827.6875.274 1.2784.274h.1611c.598 0 1.0277-.0913 1.2891-.274.2613-.1826.392-.4601.392-.8325zm-1.0527-5.4892-3.61474-1.0743v-1.665l6.71384 2.3364.3062.1289c.7591.3474 1.1387.9203 1.1387 1.7188 0 .2256-.0341.4547-.1021.6875h-1.1763l.0054-.2363c0-.2937-.0448-.5121-.1343-.6553-.0895-.1468-.2381-.2614-.4458-.3438l-.478-.1826-5.82764 2.0357v-1.6704z" fill="#000"/><path d="m399.678 112.714c0 2.52-1.001 4.936-2.783 6.718-1.781 1.781-4.198 2.782-6.717 2.782-2.52 0-4.936-1.001-6.718-2.782-1.781-1.782-2.782-4.198-2.782-6.718 0-2.519 1.001-4.936 2.782-6.717 1.782-1.782 4.198-2.783 6.718-2.783 2.519 0 4.936 1.001 6.717 2.783 1.782 1.781 2.783 4.198 2.783 6.717" fill="#4c78a8" opacity=".7"/><path d="m445.807 43.1134c0 1.6087-.64 3.1516-1.777 4.2892-1.138 1.1376-2.681 1.7766-4.289 1.7766-1.609 0-3.152-.639-4.29-1.7766-1.137-1.1376-1.776-2.6805-1.776-4.2892 0-1.6088.639-3.1517 1.776-4.2893 1.138-1.1375 2.681-1.7766 4.29-1.7766 1.608 0 3.151.6391 4.289 1.7766 1.137 1.1376 1.777 2.6805 1.777 4.2893" fill="#f58518" opacity=".7"/><path d="m239.071 84.5932c0 1.1823-.47 2.3162-1.306 3.1523-.836.836-1.97 1.3057-3.152 1.3057-1.183 0-2.316-.4697-3.153-1.3057-.836-.8361-1.305-1.97-1.305-3.1523s.469-2.3162 1.305-3.1522c.837-.8361 1.97-1.3057 3.153-1.3057 1.182 0 2.316.4696 3.152 1.3057.836.836 1.306 1.9699 1.306 3.1522" fill="#f58518" opacity=".7"/><path d="m89.4438 311.137c0 1.182-.4697 2.316-1.3057 3.152-.8361.836-1.97 1.306-3.1523 1.306s-2.3162-.47-3.1523-1.306c-.836-.836-1.3057-1.97-1.3057-3.152 0-1.183.4697-2.317 1.3057-3.153.8361-.836 1.97-1.305 3.1523-1.305s2.3162.469 3.1523 1.305c.836.836 1.3057 1.97 1.3057 3.153" fill="#f58518" opacity=".7"/><path d="m182.053 142.027c0 1.12-.445 2.194-1.237 2.986s-1.866 1.237-2.986 1.237-2.194-.445-2.987-1.237c-.792-.792-1.237-1.866-1.237-2.986s.445-2.195 1.237-2.987c.793-.792 1.867-1.237 2.987-1.237s2.194.445 2.986 1.237 1.237 1.867 1.237 2.987" fill="#f58518" opacity=".7"/><path d="m84.9858 311.137 92.8442-169.11 56.783-57.4339 205.128-41.4798" stroke="#f58518" stroke-dasharray="5 5" stroke-width="2"/><g opacity=".7"><path d="m482 65c0 1.3261-.527 2.5979-1.464 3.5355-.938.9377-2.21 1.4645-3.536 1.4645s-2.598-.5268-3.536-1.4645c-.937-.9376-1.464-2.2094-1.464-3.5355s.527-2.5979 1.464-3.5355c.938-.9377 2.21-1.4645 3.536-1.4645s2.598.5268 3.536 1.4645c.937.9376 1.464 2.2094 1.464 3.5355" fill="#4c78a8"/><path d="m482 65c0 1.3261-.527 2.5979-1.464 3.5355-.938.9377-2.21 1.4645-3.536 1.4645s-2.598-.5268-3.536-1.4645c-.937-.9376-1.464-2.2094-1.464-3.5355s.527-2.5979 1.464-3.5355c.938-.9377 2.21-1.4645 3.536-1.4645s2.598.5268 3.536 1.4645c.937.9376 1.464 2.2094 1.464 3.5355" stroke="#4c78a8" stroke-width="1.5"/></g><path d="m489.036 59.8906 2.324 5.8008 2.325-5.8008h1.215v7.1094h-.937v-2.7686l.088-2.9882-2.334 5.7568h-.718l-2.329-5.7422.093 2.9736v2.7686h-.938v-7.1094zm7.139 4.419c0-.5176.101-.9831.303-1.3965.205-.4134.488-.7324.849-.957.365-.2247.78-.337 1.245-.337.72 0 1.301.2491 1.743.7471.446.4981.669 1.1605.669 1.9873v.0635c0 .5143-.099.9766-.297 1.3867-.196.4069-.477.7243-.845.9522-.365.2278-.785.3418-1.26.3418-.716 0-1.297-.2491-1.743-.7471-.443-.4981-.664-1.1572-.664-1.9776zm.908.1074c0 .5859.135 1.0563.405 1.4111.274.3548.638.5323 1.094.5323.459 0 .824-.1791 1.094-.5372.27-.3613.405-.8658.405-1.5136 0-.5795-.138-1.0482-.415-1.4063-.273-.3613-.638-.542-1.094-.542-.446 0-.805.1774-1.079.5323-.273.3548-.41.8626-.41 1.5234zm9.507 0c0 .8073-.186 1.4567-.557 1.9482-.371.4883-.869.7325-1.494.7325-.667 0-1.183-.236-1.548-.7081l-.044.6104h-.83v-7.5h.904v2.7979c.364-.4525.867-.6788 1.508-.6788.642 0 1.145.2426 1.509.7276.368.485.552 1.1491.552 1.9922zm-.903-.1025c0-.6153-.119-1.0905-.357-1.4258s-.579-.503-1.025-.503c-.596 0-1.024.2767-1.284.8301v2.2852c.276.5534.708.8301 1.293.8301.433 0 .77-.1677 1.011-.503s.362-.8398.362-1.5136zm3.027 2.6855h-.903v-5.2832h.903zm-.977-6.6846c0-.1465.044-.2702.132-.3711.091-.1009.225-.1513.401-.1513.175 0 .309.0504.4.1513s.137.2246.137.3711-.046.2686-.137.3662c-.091.0977-.225.1465-.4.1465-.176 0-.31-.0488-.401-.1465-.088-.0976-.132-.2197-.132-.3662zm3.409 6.6846h-.904v-7.5h.904zm3.642.0977c-.716 0-1.299-.2344-1.748-.7032-.449-.472-.674-1.1019-.674-1.8896v-.166c0-.5241.099-.9912.298-1.4014.202-.4134.482-.7357.84-.9668.361-.2344.752-.3516 1.172-.3516.687 0 1.22.2263 1.601.6788.381.4524.572 1.1002.572 1.9433v.376h-3.579c.013.5208.164.9424.454 1.2646.293.319.664.4786 1.113.4786.319 0 .589-.0652.81-.1954.222-.1302.415-.3027.582-.5175l.551.4296c-.442.6804-1.106 1.0206-1.992 1.0206zm-.112-4.7364c-.365 0-.671.1335-.918.4004-.248.2637-.401.6348-.459 1.1133h2.646v-.0684c-.026-.4589-.149-.8138-.371-1.0644-.221-.2539-.521-.3809-.898-.3809zm8.828 4.6387h-.942l-3.58-5.4785v5.4785h-.942v-7.1094h.942l3.589 5.503v-5.503h.933zm3.716.0977c-.716 0-1.299-.2344-1.748-.7032-.45-.472-.674-1.1019-.674-1.8896v-.166c0-.5241.099-.9912.298-1.4014.202-.4134.481-.7357.84-.9668.361-.2344.752-.3516 1.171-.3516.687 0 1.221.2263 1.602.6788.381.4524.571 1.1002.571 1.9433v.376h-3.579c.013.5208.165.9424.454 1.2646.293.319.664.4786 1.114.4786.319 0 .589-.0652.81-.1954s.415-.3027.581-.5175l.552.4296c-.443.6804-1.107 1.0206-1.992 1.0206zm-.113-4.7364c-.364 0-.67.1335-.918.4004-.247.2637-.4.6348-.459 1.1133h2.647v-.0684c-.026-.4589-.15-.8138-.371-1.0644-.221-.2539-.521-.3809-.899-.3809zm4.449-1.9238v1.2793h.986v.6982h-.986v3.2764c0 .2116.044.3711.132.4785.087.1042.237.1563.449.1563.104 0 .247-.0196.429-.0586v.7324c-.237.0651-.468.0977-.693.0977-.404 0-.708-.1221-.913-.3663-.205-.2441-.308-.5908-.308-1.04v-3.2764h-.962v-.6982h.962v-1.2793zm6.269 5.3369 1.309-4.0576h.923l-1.895 5.2832h-.688l-1.914-5.2832h.922zm5.977 1.2256h-.908v-6.0205l-1.822.6689v-.8203l2.588-.9717h.142zm9.585-3.0322c0 1.0579-.181 1.844-.542 2.3584-.362.5143-.926.7715-1.695.7715-.758 0-1.32-.2507-1.684-.752-.365-.5046-.554-1.2565-.567-2.2559v-1.206c0-1.0449.181-1.8213.542-2.3291.362-.5078.928-.7617 1.7-.7617.765 0 1.328.2457 1.689.7373.361.4883.547 1.2435.557 2.2656zm-.904-1.2354c0-.765-.107-1.3216-.322-1.6699-.215-.3516-.555-.5273-1.02-.5273-.463 0-.8.1741-1.011.5224-.212.3483-.321.8838-.327 1.6065v1.4453c0 .7682.11 1.3362.332 1.7041.224.3646.563.5469 1.015.5469.446 0 .777-.1726.992-.5176.218-.3451.332-.8887.341-1.6309zm2.173 3.794c0-.1563.046-.2865.137-.3907.094-.1041.234-.1562.42-.1562.185 0 .325.0521.42.1562.097.1042.146.2344.146.3907 0 .1497-.049.275-.146.3759-.095.101-.235.1514-.42.1514-.186 0-.326-.0504-.42-.1514-.091-.1009-.137-.2262-.137-.3759zm7.183.4736h-4.658v-.6494l2.461-2.7344c.364-.4134.615-.7487.752-1.0058.14-.2605.21-.529.21-.8057 0-.3711-.113-.6755-.337-.9131-.225-.2376-.524-.3564-.899-.3564-.449 0-.799.1285-1.05.3857-.247.2539-.371.6087-.371 1.0645h-.903c0-.6543.21-1.1833.63-1.587.423-.4036.988-.6054 1.694-.6054.661 0 1.183.1741 1.568.5224.384.3451.576.8057.576 1.3819 0 .6998-.446 1.5332-1.338 2.5l-1.904 2.0654h3.569zm1.372-3.5645.361-3.5449h3.643v.835h-2.876l-.215 1.9385c.348-.2051.744-.3077 1.187-.3077.647 0 1.162.2149 1.543.6446.38.4264.571 1.0042.571 1.7334 0 .7324-.199 1.3102-.596 1.7334-.394.4199-.946.6299-1.655.6299-.628 0-1.141-.1742-1.538-.5225s-.624-.8301-.679-1.4453h.855c.055.4069.2.7145.434.9228.234.2051.544.3077.928.3077.42 0 .749-.1433.986-.4297.241-.2865.361-.682.361-1.1866 0-.4752-.13-.8561-.39-1.1425-.257-.2898-.601-.4346-1.03-.4346-.394 0-.704.0863-.928.2588l-.239.1953z" fill="#000"/><g opacity=".7"><path d="m482 49c0 1.3261-.527 2.5979-1.464 3.5355-.938.9377-2.21 1.4645-3.536 1.4645s-2.598-.5268-3.536-1.4645c-.937-.9376-1.464-2.2094-1.464-3.5355s.527-2.5979 1.464-3.5355c.938-.9377 2.21-1.4645 3.536-1.4645s2.598.5268 3.536 1.4645c.937.9376 1.464 2.2094 1.464 3.5355" fill="#f58518"/><path d="m482 49c0 1.3261-.527 2.5979-1.464 3.5355-.938.9377-2.21 1.4645-3.536 1.4645s-2.598-.5268-3.536-1.4645c-.937-.9376-1.464-2.2094-1.464-3.5355s.527-2.5979 1.464-3.5355c.938-.9377 2.21-1.4645 3.536-1.4645s2.598.5268 3.536 1.4645c.937.9376 1.464 2.2094 1.464 3.5355" stroke="#f58518" stroke-width="1.5"/></g><path d="m488.763 48.2168v2.7832h-.938v-7.1094h2.622c.778 0 1.387.1986 1.826.5957.443.3972.665.9229.665 1.5772 0 .6901-.217 1.2223-.65 1.5967-.43.371-1.046.5566-1.85.5566zm0-.7666h1.684c.502 0 .886-.1172 1.153-.3516.267-.2376.4-.5794.4-1.0254 0-.4231-.133-.7617-.4-1.0156s-.634-.3857-1.099-.3955h-1.738zm6.211 3.5498h-.904v-7.5h.904zm4.712-.5225c-.352.4135-.868.6202-1.548.6202-.563 0-.993-.1628-1.289-.4883-.293-.3288-.441-.8138-.445-1.4551v-3.4375h.904v3.4131c0 .8008.325 1.2012.976 1.2012.69 0 1.149-.2572 1.377-.7715v-3.8428h.903v5.2832h-.859zm3.105-4.7607.024.5859c.388-.4557.91-.6836 1.568-.6836.739 0 1.242.2832 1.509.8497.175-.254.403-.459.683-.6153.283-.1562.617-.2344 1.001-.2344 1.159 0 1.748.6136 1.768 1.8409v3.54h-.904v-3.4863c0-.3776-.086-.6592-.258-.8448-.173-.1888-.463-.2832-.87-.2832-.335 0-.613.101-.834.3028-.222.1985-.35.4671-.386.8056v3.5059h-.908v-3.4619c0-.7682-.376-1.1524-1.128-1.1524-.593 0-.998.2523-1.216.7569v3.8574h-.903v-5.2832zm10.112 5.3809c-.716 0-1.299-.2344-1.748-.7032-.449-.472-.674-1.1019-.674-1.8896v-.166c0-.5241.1-.9912.298-1.4014.202-.4134.482-.7357.84-.9668.361-.2344.752-.3516 1.172-.3516.687 0 1.221.2263 1.602.6788.38.4524.571 1.1002.571 1.9433v.376h-3.579c.013.5208.164.9424.454 1.2646.293.319.664.4786 1.113.4786.319 0 .589-.0652.811-.1954.221-.1302.415-.3027.581-.5175l.552.4296c-.443.6804-1.107 1.0206-1.993 1.0206zm-.112-4.7364c-.365 0-.671.1335-.918.4004-.247.2637-.4.6348-.459 1.1133h2.647v-.0684c-.026-.4589-.15-.8138-.372-1.0644-.221-.2539-.52-.3809-.898-.3809zm5.776.166c-.136-.0227-.284-.0341-.444-.0341-.592 0-.994.2522-1.206.7568v3.75h-.903v-5.2832h.879l.014.6103c.296-.472.716-.708 1.26-.708.176 0 .309.0228.4.0684zm3.902 4.4727c-.052-.1042-.095-.2897-.127-.5566-.42.4362-.921.6543-1.504.6543-.521 0-.949-.1465-1.284-.4395-.332-.2962-.498-.6706-.498-1.123 0-.5502.208-.9766.625-1.2793.42-.306 1.009-.459 1.767-.459h.879v-.4151c0-.3157-.094-.5664-.283-.7519-.189-.1888-.467-.2832-.835-.2832-.322 0-.592.0814-.811.2441-.218.1628-.327.3597-.327.5908h-.908c0-.2636.093-.5175.278-.7617.189-.2474.443-.4427.762-.5859.322-.1432.676-.2149 1.06-.2149.608 0 1.085.153 1.43.459.345.3028.524.7211.537 1.2549v2.4316c0 .4851.062.8708.186 1.1573v.0781zm-1.499-.6885c.283 0 .551-.0732.805-.2197s.438-.3369.552-.5713v-1.084h-.708c-1.107 0-1.66.3239-1.66.9717 0 .2832.094.5046.283.6641s.432.2392.728.2392zm4.658.6885h-.903v-5.2832h.903zm-.977-6.6846c0-.1465.044-.2702.132-.3711.091-.1009.225-.1513.401-.1513.175 0 .309.0504.4.1513s.137.2246.137.3711-.046.2686-.137.3662c-.091.0977-.225.1465-.4.1465-.176 0-.31-.0488-.401-.1465-.088-.0976-.132-.2197-.132-.3662zm5.049 6.6846v-7.1094h2.324c.772 0 1.351.1595 1.739.4785.39.3191.586.7911.586 1.4161 0 .332-.095.6266-.284.8837-.188.254-.446.4509-.771.5909.384.1074.687.3125.908.6152.225.2995.337.6576.337 1.0742 0 .638-.207 1.1393-.62 1.5039s-.998.5469-1.753.5469zm.938-3.3252v2.5586h1.548c.436 0 .779-.1123 1.03-.3369.254-.2279.381-.5404.381-.9375 0-.8561-.466-1.2842-1.397-1.2842zm0-.7519h1.416c.41 0 .737-.1026.981-.3077.248-.205.371-.4834.371-.8349 0-.3907-.114-.6739-.342-.8496-.227-.1791-.574-.2686-1.04-.2686h-1.386zm10.757 4.0771h-.943l-3.579-5.4785v5.4785h-.942v-7.1094h.942l3.589 5.503v-5.503h.933zm7.128 0h-.942l-3.579-5.4785v5.4785h-.942v-7.1094h.942l3.589 5.503v-5.503h.932z" fill="#000"/><path d="m473.052 29.1885.048.6499c.412-.5049.969-.7573 1.671-.7573.748 0 1.262.2954 1.541.8862.408-.5908.99-.8862 1.746-.8862.63 0 1.099.1844 1.407.5532.308.3652.462.9166.462 1.6543v3.7114h-1.558v-3.7061c0-.3294-.064-.5693-.193-.7197-.129-.154-.357-.2309-.682-.2309-.466 0-.788.222-.967.666l.005 3.9907h-1.552v-3.7007c0-.3366-.066-.5801-.199-.7305-.132-.1503-.358-.2255-.677-.2255-.44 0-.759.1826-.956.5478v4.1089h-1.552v-5.8115zm7.831 2.852c0-.5765.111-1.0903.333-1.5415.222-.4511.541-.8003.956-1.0473.419-.2471.904-.3706 1.455-.3706.785 0 1.424.2399 1.918.7197.498.4798.775 1.1315.832 1.9551l.011.3974c0 .8916-.249 1.6078-.746 2.1485-.498.5371-1.166.8056-2.004.8056s-1.507-.2685-2.009-.8056c-.497-.5372-.746-1.2676-.746-2.1914zm1.552.1128c0 .5515.104.974.312 1.2676.207.29.504.4351.891.4351.376 0 .67-.1433.881-.4297.211-.2901.317-.752.317-1.3858 0-.5407-.106-.9596-.317-1.2568s-.508-.4458-.892-.4458c-.379 0-.673.1486-.88.4458-.208.2936-.312.7502-.312 1.3696zm4.668-.102c0-.906.202-1.6275.606-2.1646.409-.5371.965-.8056 1.671-.8056.566 0 1.033.2112 1.402.6337v-2.9648h1.557v8.25h-1.401l-.076-.6177c-.386.4834-.884.7251-1.493.7251-.684 0-1.233-.2685-1.649-.8056-.412-.5407-.617-1.2909-.617-2.2505zm1.552.1128c0 .5442.095.9614.284 1.2514.19.2901.466.4351.828.4351.479 0 .818-.2023 1.015-.6069v-2.2935c-.194-.4046-.528-.6069-1.005-.6069-.748 0-1.122.6069-1.122 1.8208zm7.562 2.9433c-.852 0-1.547-.2614-2.084-.7842-.533-.5227-.8-1.2192-.8-2.0893v-.1504c0-.5837.113-1.1047.338-1.563.226-.4619.545-.8164.956-1.0635.416-.2506.888-.3759 1.418-.3759.795 0 1.42.2506 1.875.7519.458.5013.687 1.2121.687 2.1323v.6338h-3.7c.05.3796.2.6839.451.9131.254.2292.575.3438.961.3438.598 0 1.066-.2167 1.402-.6499l.763.854c-.233.3294-.548.5872-.945.7734-.398.1826-.838.2739-1.322.2739zm-.177-4.7695c-.308 0-.559.1038-.752.3115-.19.2077-.311.5049-.365.8916h2.159v-.1235c-.007-.3438-.1-.6087-.279-.7949-.179-.1898-.434-.2847-.763-.2847zm5.092 4.6621h-1.558v-8.25h1.558z" fill="#000"/><path d="m485.11 101c0 1.09-.433 2.136-1.204 2.906-.77.771-1.816 1.204-2.906 1.204s-2.136-.433-2.906-1.204c-.771-.77-1.204-1.816-1.204-2.906 0-1.0901.433-2.1356 1.204-2.9065.77-.7708 1.816-1.2039 2.906-1.2039s2.136.4331 2.906 1.2039c.771.7709 1.204 1.8164 1.204 2.9065" fill="#000" fill-opacity=".7" opacity=".7"/><path d="m496.006 99.4355.361-3.5449h3.643v.835h-2.876l-.215 1.9385c.348-.2051.744-.3077 1.186-.3077.648 0 1.163.2149 1.543.6446.381.4264.572 1.004.572 1.733 0 .733-.199 1.311-.596 1.734-.394.42-.946.63-1.655.63-.629 0-1.141-.174-1.538-.523-.397-.348-.624-.83-.679-1.445h.854c.056.407.201.714.435.923.234.205.544.307.928.307.42 0 .748-.143.986-.429.241-.287.361-.682.361-1.187 0-.475-.13-.856-.39-1.1424-.257-.2898-.601-.4346-1.03-.4346-.394 0-.704.0863-.928.2588l-.239.1953z" fill="#000"/><path d="m486.813 117c0 1.542-.613 3.02-1.703 4.11s-2.568 1.703-4.11 1.703-3.02-.613-4.11-1.703c-1.091-1.09-1.703-2.568-1.703-4.11s.612-3.02 1.703-4.11c1.09-1.091 2.568-1.703 4.11-1.703s3.02.612 4.11 1.703c1.09 1.09 1.703 2.568 1.703 4.11" fill="#000" fill-opacity=".7" opacity=".7"/><path d="m498.56 119h-.909v-6.021l-1.821.669v-.82l2.588-.972h.142zm7.104-3.032c0 1.058-.181 1.844-.542 2.358s-.926.772-1.694.772c-.759 0-1.32-.251-1.685-.752-.364-.505-.553-1.257-.566-2.256v-1.206c0-1.045.18-1.822.542-2.329.361-.508.927-.762 1.699-.762.765 0 1.328.246 1.689.737.362.489.547 1.244.557 2.266zm-.903-1.236c0-.765-.108-1.321-.323-1.67-.214-.351-.555-.527-1.02-.527-.462 0-.799.174-1.011.523-.211.348-.32.883-.327 1.606v1.445c0 .769.111 1.337.332 1.704.225.365.563.547 1.016.547.446 0 .776-.172.991-.517.218-.345.332-.889.342-1.631z" fill="#000"/><path d="m488.12 136c0 1.888-.751 3.699-2.086 5.034s-3.146 2.085-5.034 2.085-3.699-.75-5.034-2.085-2.085-3.146-2.085-5.034.75-3.699 2.085-5.034 3.146-2.085 5.034-2.085 3.699.75 5.034 2.085 2.086 3.146 2.086 5.034" fill="#000" fill-opacity=".7" opacity=".7"/><path d="m498.56 138h-.909v-6.021l-1.821.669v-.82l2.588-.972h.142zm3.061-3.564.361-3.545h3.643v.835h-2.876l-.215 1.938c.348-.205.744-.308 1.187-.308.647 0 1.162.215 1.543.645.381.426.571 1.004.571 1.733 0 .733-.199 1.311-.596 1.734-.394.42-.945.63-1.655.63-.628 0-1.141-.174-1.538-.523-.397-.348-.623-.83-.679-1.445h.855c.055.407.2.714.434.923.235.205.544.307.928.307.42 0 .749-.143.986-.429.241-.287.362-.682.362-1.187 0-.475-.131-.856-.391-1.142-.257-.29-.601-.435-1.03-.435-.394 0-.703.086-.928.259l-.239.195z" fill="#000"/><path d="m489.221 157c0 2.18-.866 4.271-2.408 5.813s-3.633 2.408-5.813 2.408-4.271-.866-5.813-2.408-2.408-3.633-2.408-5.813.866-4.271 2.408-5.813 3.633-2.408 5.813-2.408 4.271.866 5.813 2.408 2.408 3.633 2.408 5.813" fill="#000" fill-opacity=".7" opacity=".7"/><path d="m500.249 159h-4.658v-.649l2.461-2.735c.364-.413.615-.748.752-1.006.14-.26.21-.529.21-.805 0-.371-.113-.676-.337-.913-.225-.238-.524-.357-.899-.357-.449 0-.799.129-1.049.386-.248.254-.372.609-.372 1.064h-.903c0-.654.21-1.183.63-1.587.423-.403.988-.605 1.694-.605.661 0 1.184.174 1.568.522.384.345.576.806.576 1.382 0 .7-.446 1.533-1.338 2.5l-1.904 2.066h3.569zm5.415-3.032c0 1.058-.181 1.844-.542 2.358s-.926.772-1.694.772c-.759 0-1.32-.251-1.685-.752-.364-.505-.553-1.257-.566-2.256v-1.206c0-1.045.18-1.822.542-2.329.361-.508.927-.762 1.699-.762.765 0 1.328.246 1.689.737.362.489.547 1.244.557 2.266zm-.903-1.236c0-.765-.108-1.321-.323-1.67-.214-.351-.555-.527-1.02-.527-.462 0-.799.174-1.011.523-.211.348-.32.883-.327 1.606v1.445c0 .769.111 1.337.332 1.704.225.365.563.547 1.016.547.446 0 .776-.172.991-.517.218-.345.332-.889.342-1.631z" fill="#000"/><path d="m490.191 180c0 2.438-.968 4.775-2.692 6.499s-4.061 2.692-6.499 2.692-4.775-.968-6.499-2.692-2.692-4.061-2.692-6.499.968-4.775 2.692-6.499 4.061-2.692 6.499-2.692 4.775.968 6.499 2.692 2.692 4.061 2.692 6.499" fill="#000" fill-opacity=".7" opacity=".7"/><path d="m500.249 182h-4.658v-.649l2.461-2.735c.364-.413.615-.748.752-1.006.14-.26.21-.529.21-.805 0-.371-.113-.676-.337-.913-.225-.238-.524-.357-.899-.357-.449 0-.799.129-1.049.386-.248.254-.372.609-.372 1.064h-.903c0-.654.21-1.183.63-1.587.423-.403.988-.605 1.694-.605.661 0 1.184.174 1.568.522.384.345.576.806.576 1.382 0 .7-.446 1.533-1.338 2.5l-1.904 2.066h3.569zm1.372-3.564.361-3.545h3.643v.835h-2.876l-.215 1.938c.348-.205.744-.308 1.187-.308.647 0 1.162.215 1.543.645.381.426.571 1.004.571 1.733 0 .733-.199 1.311-.596 1.734-.394.42-.945.63-1.655.63-.628 0-1.141-.174-1.538-.523-.397-.348-.623-.83-.679-1.445h.855c.055.407.2.714.434.923.235.205.544.307.928.307.42 0 .749-.143.986-.429.241-.287.362-.682.362-1.187 0-.475-.131-.856-.391-1.142-.257-.29-.601-.435-1.03-.435-.394 0-.703.086-.928.259l-.239.195z" fill="#000"/><path d="m473.052 82.1885.048.6499c.412-.5049.969-.7573 1.671-.7573.748 0 1.262.2954 1.541.8862.408-.5908.99-.8862 1.746-.8862.63 0 1.099.1844 1.407.5532.308.3652.462.9166.462 1.6543v3.7114h-1.558v-3.7061c0-.3294-.064-.5693-.193-.7197-.129-.154-.357-.2309-.682-.2309-.466 0-.788.222-.967.666l.005 3.9907h-1.552v-3.7007c0-.3366-.066-.5801-.199-.7305-.132-.1503-.358-.2255-.677-.2255-.44 0-.759.1826-.956.5478v4.1089h-1.552v-5.8115zm7.831 2.852c0-.5765.111-1.0903.333-1.5415.222-.4511.541-.8003.956-1.0473.419-.2471.904-.3706 1.455-.3706.785 0 1.424.2399 1.918.7197.498.4798.775 1.1315.832 1.9551l.011.3974c0 .8916-.249 1.6078-.746 2.1485-.498.5371-1.166.8056-2.004.8056s-1.507-.2685-2.009-.8056c-.497-.5372-.746-1.2676-.746-2.1914zm1.552.1128c0 .5515.104.974.312 1.2676.207.29.504.4351.891.4351.376 0 .67-.1433.881-.4297.211-.2901.317-.752.317-1.3858 0-.5407-.106-.9596-.317-1.2568s-.508-.4458-.892-.4458c-.379 0-.673.1486-.88.4458-.208.2936-.312.7502-.312 1.3696zm4.668-.102c0-.906.202-1.6275.606-2.1646.409-.5371.965-.8056 1.671-.8056.566 0 1.033.2112 1.402.6337v-2.9648h1.557v8.25h-1.401l-.076-.6177c-.386.4834-.884.7251-1.493.7251-.684 0-1.233-.2685-1.649-.8056-.412-.5407-.617-1.2909-.617-2.2505zm1.552.1128c0 .5442.095.9614.284 1.2514.19.2901.466.4351.828.4351.479 0 .818-.2023 1.015-.6069v-2.2935c-.194-.4046-.528-.6069-1.005-.6069-.748 0-1.122.6069-1.122 1.8208zm7.562 2.9433c-.852 0-1.547-.2614-2.084-.7842-.533-.5227-.8-1.2192-.8-2.0893v-.1504c0-.5837.113-1.1047.338-1.563.226-.4619.545-.8164.956-1.0635.416-.2506.888-.3759 1.418-.3759.795 0 1.42.2506 1.875.7519.458.5013.687 1.2121.687 2.1323v.6338h-3.7c.05.3796.2.6839.451.9131.254.2292.575.3438.961.3438.598 0 1.066-.2167 1.402-.6499l.763.854c-.233.3294-.548.5872-.945.7734-.398.1826-.838.2739-1.322.2739zm-.177-4.7695c-.308 0-.559.1038-.752.3115-.19.2077-.311.5049-.365.8916h2.159v-.1235c-.007-.3438-.1-.6087-.279-.7949-.179-.1898-.434-.2847-.763-.2847zm5.092 4.6621h-1.558v-8.25h1.558zm7.17-1.606c0-.1897-.095-.3383-.284-.4458-.187-.111-.487-.2094-.903-.2954-1.382-.29-2.073-.8772-2.073-1.7617 0-.5156.213-.9453.639-1.289.43-.3474.99-.521 1.681-.521.738 0 1.327.1736 1.767.521.444.3473.666.7985.666 1.3535h-1.552c0-.222-.071-.4047-.215-.5479-.143-.1468-.367-.2202-.671-.2202-.261 0-.464.0591-.607.1772-.143.1182-.215.2686-.215.4512 0 .1719.081.3115.242.419.165.1038.44.1951.827.2739.387.0752.713.1611.978.2578.82.3008 1.23.8218 1.23 1.563 0 .5299-.228.9596-.683 1.2891-.454.3258-1.042.4887-1.761.4887-.487 0-.921-.0859-1.3-.2578-.376-.1754-.672-.4136-.886-.7143-.215-.3044-.323-.632-.323-.983h1.472c.014.2758.116.487.306.6338s.444.2202.763.2202c.297 0 .521-.0555.671-.1665.154-.1145.231-.2631.231-.4458zm4.152 1.606h-1.558v-5.8115h1.558zm-1.649-7.3154c0-.2328.077-.4243.231-.5747.158-.1504.371-.2256.639-.2256.265 0 .477.0752.634.2256.158.1504.236.3419.236.5747 0 .2363-.08.4297-.241.58-.158.1504-.367.2256-.629.2256-.261 0-.472-.0752-.633-.2256-.158-.1503-.237-.3437-.237-.58zm4.716 6.0639h2.841v1.2515h-4.823v-.9453l2.734-3.6094h-2.653v-1.2568h4.656v.9184zm6.402 1.3589c-.852 0-1.547-.2614-2.084-.7842-.533-.5227-.8-1.2192-.8-2.0893v-.1504c0-.5837.113-1.1047.338-1.563.226-.4619.545-.8164.956-1.0635.416-.2506.889-.3759 1.418-.3759.795 0 1.42.2506 1.875.7519.458.5013.687 1.2121.687 2.1323v.6338h-3.7c.05.3796.2.6839.451.9131.254.2292.575.3438.961.3438.598 0 1.066-.2167 1.402-.6499l.763.854c-.233.3294-.548.5872-.945.7734-.398.1826-.838.2739-1.322.2739zm-.177-4.7695c-.308 0-.558.1038-.752.3115-.19.2077-.311.5049-.365.8916h2.159v-.1235c-.007-.3438-.1-.6087-.279-.7949-.179-.1898-.433-.2847-.763-.2847zm6.263 1.4824c0-.82.109-1.6006.327-2.3418.219-.7412.541-1.3965.967-1.9658.426-.5729.888-.9704 1.386-1.1924l.301.8379c-.523.3867-.931.9847-1.225 1.7939-.293.8093-.44 1.7546-.44 2.836v.1665c0 1.085.145 2.0338.435 2.8467.29.8128.7 1.4197 1.23 1.8208l-.301.8217c-.487-.2184-.942-.6051-1.364-1.1601-.419-.5514-.74-1.1888-.962-1.9121s-.34-1.4789-.354-2.2666zm6.005-4.6406 2.008 5.6719 1.999-5.6719h2.116v7.8203h-1.617v-2.1377l.161-3.6899-2.111 5.8276h-1.106l-2.106-5.8223.162 3.6846v2.1377h-1.612v-7.8203zm9.066 7.8203h-1.558v-5.8115h1.558zm-1.649-7.3154c0-.2328.077-.4243.231-.5747.158-.1504.371-.2256.639-.2256.265 0 .477.0752.634.2256.158.1504.236.3419.236.5747 0 .2363-.08.4297-.241.58-.158.1504-.367.2256-.629.2256-.261 0-.472-.0752-.634-.2256-.157-.1503-.236-.3437-.236-.58zm3.035 7.3154v-7.8203h2.739c.949 0 1.669.1826 2.159.5478.491.3617.736.8934.736 1.5953 0 .3831-.098.7215-.295 1.0151-.197.29-.471.5031-.822.6392.401.1002.716.3025.945.6069.233.3043.349.6767.349 1.1172 0 .7519-.24 1.3213-.719 1.708-.48.3867-1.164.5836-2.052.5908zm1.611-3.4053v2.1109h1.381c.379 0 .674-.0896.886-.2686.215-.1826.322-.4333.322-.7519 0-.7162-.371-1.0796-1.112-1.0904zm0-1.1386h1.193c.812-.0144 1.219-.3384 1.219-.9722 0-.3545-.104-.6087-.312-.7627-.204-.1576-.528-.2363-.972-.2363h-1.128zm7.987 1.4877c0 .8093-.116 1.5881-.349 2.3365-.233.7483-.568 1.409-1.005 1.9819-.436.5729-.904.9668-1.401 1.1816l-.301-.8217c.508-.3832.909-.974 1.203-1.7725s.446-1.717.456-2.7554v-.2846c0-1.0707-.146-2.0142-.44-2.8306-.29-.8164-.696-1.4287-1.219-1.8369l.301-.8218c.487.2113.945.5944 1.375 1.1494.433.555.768 1.2014 1.004 1.939.24.7376.365 1.5021.376 2.2934z" fill="#000"/><path d="m160.813 4.75781 2.375 6.70309 2.361-6.70309h2.501v9.24219h-1.911v-2.5264l.191-4.36081-2.495 6.88721h-1.308l-2.488-6.88086.19 4.35446v2.5264h-1.904v-9.24219zm8.494 5.74459c0-.68127.131-1.28853.393-1.82174.263-.5332.639-.9458 1.13-1.23779.495-.29199 1.069-.43799 1.72-.43799.927 0 1.682.28353 2.266.85059.589.56706.917 1.33724.984 2.31053l.013.4697c0 1.0538-.294 1.9001-.882 2.5391-.589.6348-1.378.9522-2.368.9522s-1.782-.3174-2.374-.9522c-.588-.6348-.882-1.498-.882-2.5898zm1.834.1333c0 .6517.123 1.1511.368 1.4981.246.3428.597.5141 1.054.5141.444 0 .791-.1692 1.041-.5078.25-.3427.375-.8886.375-1.6377 0-.63896-.125-1.13407-.375-1.48531s-.601-.52686-1.054-.52686c-.448 0-.795.17562-1.041.52686-.245.34701-.368.88656-.368 1.61861zm5.516-.1206c0-1.0706.239-1.9233.718-2.55807.482-.63476 1.14-.95215 1.974-.95215.668 0 1.22.24968 1.656.74903v-3.50391h1.841v9.75h-1.657l-.088-.73c-.457.5713-1.046.857-1.765.857-.808 0-1.458-.3174-1.949-.9522-.486-.639-.73-1.5255-.73-2.6597zm1.835.1333c0 .6433.112 1.1363.336 1.479.224.3428.55.5142.978.5142.567 0 .967-.2391 1.199-.7173v-2.71043c-.228-.47819-.624-.71729-1.187-.71729-.884 0-1.326.71729-1.326 2.15182zm8.937 3.4786c-1.007 0-1.828-.309-2.463-.9268-.63-.6178-.945-1.4409-.945-2.4692v-.1778c0-.68976.133-1.30548.399-1.84715.267-.54589.644-.96484 1.13-1.25683.491-.29623 1.05-.44434 1.676-.44434.94 0 1.678.29623 2.215.88867.542.59245.813 1.43246.813 2.52005v.749h-4.374c.06.4486.237.8083.534 1.0791.3.2708.679.4062 1.136.4062.707 0 1.259-.256 1.657-.768l.901 1.0093c-.275.3893-.648.694-1.117.914-.47.2158-.991.3238-1.562.3238zm-.209-5.63677c-.364 0-.66.12273-.889.36817-.224.24544-.368.59668-.432 1.05371h2.552v-.146c-.008-.40625-.118-.7194-.33-.93945-.211-.22428-.512-.33643-.901-.33643zm6.017 5.50977h-1.841v-9.75h1.841zm4.875 0v-9.24219h3.238c1.121 0 1.972.21582 2.551.64746.58.42741.87 1.05583.87 1.88526 0 .4528-.116.8527-.349 1.1997-.233.34278-.557.59457-.971.75538.474.11849.846.35758 1.117.71728.275.35971.412.79981.412 1.32031 0 .8887-.283 1.5615-.85 2.0186-.567.457-1.375.6897-2.425.6982zm1.905-4.02441v2.49461h1.631c.449 0 .798-.1058 1.047-.3174.254-.2158.381-.512.381-.8886 0-.8464-.438-1.27592-1.314-1.28861zm0-1.34571h1.409c.96-.01692 1.441-.3999 1.441-1.14892 0-.41895-.123-.7194-.368-.90137-.242-.1862-.625-.2793-1.149-.2793h-1.333zm9.439 5.49712c-1.008 0-1.829-.309-2.463-.9268-.631-.6178-.946-1.4409-.946-2.4692v-.1778c0-.68976.133-1.30548.4-1.84715.266-.54589.643-.96484 1.13-1.25683.491-.29623 1.049-.44434 1.675-.44434.94 0 1.678.29623 2.216.88867.541.59245.812 1.43246.812 2.52005v.749h-4.373c.059.4486.237.8083.533 1.0791.3.2708.679.4062 1.136.4062.707 0 1.259-.256 1.657-.768l.901 1.0093c-.275.3893-.647.694-1.117.914-.47.2158-.99.3238-1.561.3238zm-.21-5.63677c-.364 0-.66.12273-.889.36817-.224.24544-.368.59668-.431 1.05371h2.552v-.146c-.009-.40625-.119-.7194-.331-.93945-.211-.22428-.512-.33643-.901-.33643zm5.77-1.35839.057.79345c.491-.6136 1.149-.92041 1.974-.92041.728 0 1.27.21371 1.625.64112.356.4274.538 1.0664.546 1.91699v4.43701h-1.834v-4.39258c0-.38932-.085-.67073-.254-.84424-.169-.17773-.451-.2666-.844-.2666-.517 0-.904.22005-1.162.66016v4.84326h-1.834v-6.86816zm8.455 5.51606c.339 0 .614-.093.825-.2792.212-.1862.322-.4338.33-.7427h1.721c-.005.4655-.132.8929-.381 1.2822-.25.3851-.593.6856-1.028.9014-.432.2116-.91.3174-1.435.3174-.982 0-1.756-.3111-2.323-.9332-.567-.6263-.851-1.4895-.851-2.5898v-.1206c0-1.05794.282-1.90218.844-2.53272.563-.63053 1.335-.9458 2.317-.9458.859 0 1.547.24545 2.063.73633.521.48665.785 1.13623.794 1.94873h-1.721c-.008-.35547-.118-.64323-.33-.86328-.211-.22428-.49-.33643-.838-.33643-.427 0-.751.15658-.971.46973-.216.30892-.323.8125-.323 1.51074v.1904c0 .7067.107 1.2146.323 1.5235s.544.4633.984.4633zm5.713-4.76704c.487-.58398 1.098-.87598 1.835-.87598 1.489 0 2.245.8654 2.266 2.59619v4.39893h-1.835v-4.34814c0-.39356-.084-.68344-.254-.86963-.169-.19043-.45-.28565-.844-.28565-.537 0-.927.20736-1.168.62207v4.88135h-1.834v-9.75h1.834zm7.205-.74902.057.76806c.486-.59668 1.144-.89502 1.974-.89502.884 0 1.492.34912 1.822 1.04737.482-.69825 1.17-1.04737 2.063-1.04737.744 0 1.299.21794 1.663.65381.364.43164.546 1.08333.546 1.95508v4.38623h-1.841v-4.37988c0-.38933-.076-.67285-.229-.85059-.152-.18196-.421-.27295-.806-.27295-.55 0-.931.26237-1.142.78711l.006 4.71631h-1.835v-4.37354c0-.39778-.078-.68554-.234-.86328-.157-.17773-.424-.2666-.8-.2666-.521 0-.897.21582-1.13.64746v4.85596h-1.835v-6.86816zm13.52 6.86816c-.084-.165-.146-.3703-.184-.6157-.444.4951-1.022.7427-1.733.7427-.673 0-1.231-.1947-1.676-.584-.44-.3894-.66-.8802-.66-1.4727 0-.7279.269-1.2864.806-1.6758.542-.3893 1.323-.58607 2.343-.5903h.844v-.39356c0-.31738-.083-.57128-.248-.76171-.16-.19043-.416-.28565-.768-.28565-.309 0-.552.07406-.73.22217-.173.14811-.26.35124-.26.60937h-1.834c0-.39778.122-.76595.368-1.10449.245-.33854.592-.60303 1.041-.79345.448-.19467.952-.292 1.511-.292.846 0 1.517.21371 2.012.64112.499.42317.749 1.01985.749 1.79004v2.97706c.004.6517.095 1.1447.273 1.479v.1079zm-1.517-1.2759c.271 0 .521-.0592.749-.1777.229-.1227.398-.2857.508-.4888v-1.1806h-.686c-.918 0-1.407.3173-1.466.9521l-.006.1079c0 .2285.08.4168.241.565.161.1481.381.2221.66.2221zm8.366-3.87205c-.249-.03385-.469-.05078-.66-.05078-.694 0-1.149.23486-1.365.70459v4.49414h-1.834v-6.86816h1.733l.051.81884c.368-.63053.878-.9458 1.529-.9458.204 0 .394.02751.572.08252zm3.384 2.39305-.661.6602v2.0947h-1.834v-9.75h1.834v5.40186l.356-.45704 1.758-2.06298h2.203l-2.482 2.86279 2.698 4.00537h-2.108zm7.401-.7427c0-.68127.131-1.28853.394-1.82174.262-.5332.639-.9458 1.129-1.23779.496-.29199 1.069-.43799 1.721-.43799.926 0 1.682.28353 2.266.85059.588.56706.916 1.33724.984 2.31053l.012.4697c0 1.0538-.294 1.9001-.882 2.5391-.588.6348-1.377.9522-2.368.9522-.99 0-1.781-.3174-2.374-.9522-.588-.6348-.882-1.498-.882-2.5898zm1.834.1333c0 .6517.123 1.1511.369 1.4981.245.3428.596.5141 1.053.5141.445 0 .792-.1692 1.041-.5078.25-.3427.375-.8886.375-1.6377 0-.63896-.125-1.13407-.375-1.48531-.249-.35124-.601-.52686-1.053-.52686-.449 0-.796.17562-1.041.52686-.246.34701-.369.88656-.369 1.61861zm7.491-3.50386.057.79345c.491-.6136 1.149-.92041 1.974-.92041.728 0 1.269.21371 1.625.64112.355.4274.537 1.0664.546 1.91699v4.43701h-1.835v-4.39258c0-.38932-.084-.67073-.254-.84424-.169-.17773-.45-.2666-.844-.2666-.516 0-.903.22005-1.161.66016v4.84326h-1.835v-6.86816zm16.212 3.78956c-.072.9945-.441 1.7773-1.105 2.3486-.66.5713-1.532.857-2.615.857-1.185 0-2.118-.3978-2.799-1.1934-.678-.7998-1.016-1.8958-1.016-3.28809v-.56494c0-.88868.156-1.67155.47-2.34864.313-.67708.759-1.19547 1.339-1.55517.584-.36393 1.261-.5459 2.031-.5459 1.067 0 1.926.28564 2.577.85693.652.57129 1.029 1.37321 1.13 2.40576h-1.904c-.047-.59667-.214-1.02832-.501-1.29492-.284-.27083-.718-.40625-1.302-.40625-.635 0-1.111.22852-1.428.68555-.313.4528-.474 1.15739-.482 2.11377v.69824c0 .99866.15 1.72866.45 2.18996.305.4612.783.6919 1.435.6919.588 0 1.026-.1333 1.314-.3999.292-.2709.459-.6877.501-1.2505zm.844-.419c0-.68127.131-1.28853.393-1.82174.263-.5332.639-.9458 1.13-1.23779.495-.29199 1.069-.43799 1.72-.43799.927 0 1.683.28353 2.267.85059.588.56706.916 1.33724.983 2.31053l.013.4697c0 1.0538-.294 1.9001-.882 2.5391-.588.6348-1.378.9522-2.368.9522s-1.781-.3174-2.374-.9522c-.588-.6348-.882-1.498-.882-2.5898zm1.834.1333c0 .6517.123 1.1511.368 1.4981.246.3428.597.5141 1.054.5141.445 0 .792-.1692 1.041-.5078.25-.3427.375-.8886.375-1.6377 0-.63896-.125-1.13407-.375-1.48531-.249-.35124-.601-.52686-1.054-.52686-.448 0-.795.17562-1.041.52686-.245.34701-.368.88656-.368 1.61861zm9.661-1.78365c-.249-.03385-.469-.05078-.66-.05078-.694 0-1.149.23486-1.364.70459v4.49414h-1.835v-6.86816h1.733l.051.81884c.368-.63053.878-.9458 1.53-.9458.203 0 .393.02751.571.08252zm3.403-3.40869v1.68848h1.174v1.3457h-1.174v3.42776c0 .2539.048.4358.146.5459.097.11.283.165.558.165.203 0 .383-.0148.54-.0444v1.3901c-.36.11-.73.1651-1.111.1651-1.286 0-1.942-.6496-1.968-1.9488v-3.70066h-1.003v-1.3457h1.003v-1.68848zm5.357 8.68364c-1.007 0-1.828-.309-2.463-.9268-.63-.6178-.945-1.4409-.945-2.4692v-.1778c0-.68976.133-1.30548.399-1.84715.267-.54589.644-.96484 1.13-1.25683.491-.29623 1.05-.44434 1.676-.44434.94 0 1.678.29623 2.215.88867.542.59245.813 1.43246.813 2.52005v.749h-4.374c.06.4486.237.8083.534 1.0791.3.2708.679.4062 1.136.4062.707 0 1.259-.256 1.657-.768l.901 1.0093c-.275.3893-.648.694-1.117.914-.47.2158-.991.3238-1.562.3238zm-.209-5.63677c-.364 0-.66.12273-.889.36817-.224.24544-.368.59668-.432 1.05371h2.552v-.146c-.008-.40625-.118-.7194-.33-.93945-.211-.22428-.512-.33643-.901-.33643zm6.697.6919 1.155-2.05029h1.961l-1.955 3.36426 2.038 3.5039h-1.968l-1.225-2.1582-1.219 2.1582h-1.974l2.038-3.5039-1.949-3.36426h1.968zm7.566 1.59957h-3.574v-1.47897h3.574zm4.081-6.02389 2.374 6.70309 2.362-6.70309h2.501v9.24219h-1.911v-2.5264l.191-4.36081-2.495 6.88721h-1.308l-2.488-6.88086.19 4.35446v2.5264h-1.904v-9.24219zm14.13 5.76369h1.048v1.479h-1.048v1.9995h-1.834v-1.9995h-3.79l-.082-1.1553 3.853-6.08739h1.853zm-3.878 0h2.044v-3.26271l-.121.20947z" fill="#000"/></svg>