<svg fill="none" height="210" viewBox="0 0 210 210" width="210" xmlns="http://www.w3.org/2000/svg"><g fill="#0a1d3c"><path d="m170 20h-130c-5.3043 0-10.3914 2.1071-14.1421 5.8579-3.7508 3.7507-5.8579 8.8378-5.8579 14.1421v130c0 5.304 2.1071 10.391 5.8579 14.142 3.7507 3.751 8.8378 5.858 14.1421 5.858h130c5.304 0 10.391-2.107 14.142-5.858s5.858-8.838 5.858-14.142v-130c0-5.3043-2.107-10.3914-5.858-14.1421-3.751-3.7508-8.838-5.8579-14.142-5.8579z"/><path d="m80 190h-10v20h10z"/><path d="m100 190h-10v20h10z"/><path d="m120 190h-10v20h10z"/><path d="m140 190h-10v20h10z"/><path d="m20 130h-20v10h20z"/><path d="m20 110h-20v10h20z"/><path d="m20 90h-20v10h20z"/><path d="m20 70h-20v10h20z"/><path d="m210 130h-20v10h20z"/><path d="m210 110h-20v10h20z"/><path d="m210 90h-20v10h20z"/><path d="m210 70h-20v10h20z"/><path d="m140 0h-10v20h10z"/><path d="m120 0h-10v20h10z"/><path d="m100 0h-10v20h10z"/><path d="m80 0h-10v20h10z"/></g><g fill="#7dfb9a"><path d="m170 75v5h20v-10h-20.36c.237 1.6562.357 3.327.36 5z"/><path d="m159.46 140h30.54v-10h-23.38c-1.78 3.729-4.204 7.114-7.16 10z"/><path d="m170 115c-.003 1.673-.123 3.344-.36 5h20.36v-10h-20z"/><path d="m190 90h-20v10h20z"/><path d="m80 20h-10v40h10z"/><path d="m140 20h-10v20h10z"/><path d="m120 43.39v-23.39h-10v30.55c2.886-2.9565 6.271-5.3803 10-7.16z"/><path d="m100 20h-10v40h10z"/><path d="m120 90h-95-5v10h100z"/><path d="m140 107.5v-31.5c0-1.3261-.527-2.5979-1.464-3.5355-.938-.9377-2.21-1.4645-3.536-1.4645s-2.598.5268-3.536 1.4645c-.937.9376-1.464 2.2094-1.464 3.5355v31.5c0 .663-.263 1.299-.732 1.768s-1.105.732-1.768.732h-107.5v10h107.5c3.314-.005 6.49-1.324 8.833-3.667s3.662-5.519 3.667-8.833z"/><path d="m120 180v-40h15c6.63 0 12.989-2.634 17.678-7.322 4.688-4.689 7.322-11.048 7.322-17.678v-40.07c-.022-5.3803 1.193-10.6936 3.55-15.53l5.87-12.06c.404-.7966.594-1.6845.552-2.5767s-.315-1.7582-.792-2.5133c-.68-1.0358-1.721-1.7822-2.92-2.0944-1.199-.3123-2.471-.1682-3.57.4044l-9.78 5.1c-5.529 2.8797-11.676 4.3693-17.91 4.34-5.761.0082-11.343 2.0017-15.805 5.6447-4.463 3.643-7.534 8.7128-8.695 14.3553h-90.5v10h100v-4.56c-.047-3.907 1.403-7.684 4.053-10.5553 2.65-2.8714 6.299-4.6192 10.197-4.8847 2.032-.1017 4.063.211 5.971.9191 1.907.7082 3.651 1.7969 5.124 3.2001 1.473 1.4031 2.646 3.0913 3.446 4.9619.8 1.8705 1.212 3.8843 1.209 5.9189v40c0 3.978-1.58 7.794-4.393 10.607s-6.629 4.393-10.607 4.393h-115v10h70v40h-10c-2.6522 0-5.1957 1.054-7.0711 2.929-1.8753 1.875-2.9289 4.419-2.9289 7.071h30v-50h10v50h30c0-2.652-1.054-5.196-2.929-7.071s-4.419-2.929-7.071-2.929z"/></g></svg>