<svg viewBox="0 0 550 210" xmlns="http://www.w3.org/2000/svg"><g fill="#0a1d3c"><path d="m170 20h-130a20 20 0 0 0 -20 20v130a20 20 0 0 0 20 20h130a20 20 0 0 0 20-20v-130a20 20 0 0 0 -20-20z"/><path d="m70 190h10v20h-10z"/><path d="m90 190h10v20h-10z"/><path d="m110 190h10v20h-10z"/><path d="m130 190h10v20h-10z"/><path d="m0 130h20v10h-20z"/><path d="m0 110h20v10h-20z"/><path d="m0 90h20v10h-20z"/><path d="m0 70h20v10h-20z"/><path d="m190 130h20v10h-20z"/><path d="m190 110h20v10h-20z"/><path d="m190 90h20v10h-20z"/><path d="m190 70h20v10h-20z"/><path d="m130 0h10v20h-10z"/><path d="m110 0h10v20h-10z"/><path d="m90 0h10v20h-10z"/><path d="m70 0h10v20h-10z"/></g><g fill="#7dfb9a"><path d="m170 75v5h20v-10h-20.36a35.77 35.77 0 0 1 .36 5z"/><path d="m159.46 140h30.54v-10h-23.38a35.11 35.11 0 0 1 -7.16 10z"/><path d="m170 115a35.77 35.77 0 0 1 -.36 5h20.36v-10h-20z"/><path d="m170 90h20v10h-20z"/><path d="m70 20h10v40h-10z"/><path d="m130 20h10v20h-10z"/><path d="m120 43.39v-23.39h-10v30.55a35.11 35.11 0 0 1 10-7.16z"/><path d="m90 20h10v40h-10z"/><path d="m120 90h-95-5v10h100z"/><path d="m140 107.5v-31.5a5 5 0 0 0 -10 0v31.5a2.5 2.5 0 0 1 -2.5 2.5h-107.5v10h107.5a12.52 12.52 0 0 0 12.5-12.5z"/><path d="m120 180v-40h15a25 25 0 0 0 25-25v-40.07a35.12 35.12 0 0 1 3.55-15.53l5.87-12.06a5.16 5.16 0 0 0 -.24-5.09 5 5 0 0 0 -6.49-1.69l-9.78 5.1a38.38 38.38 0 0 1 -17.91 4.34 25.05 25.05 0 0 0 -24.5 20h-90.5v10h100v-4.56a15.29 15.29 0 0 1 14.25-15.44 15 15 0 0 1 15.75 15v40a15 15 0 0 1 -15 15h-115v10h70v40h-10a10 10 0 0 0 -10 10h30v-50h10v50h30a10 10 0 0 0 -10-10z"/></g><path d="m250 115v-65h-10v65a25 25 0 0 0 25 25h45v-10h-45a15 15 0 0 1 -15-15z" fill="#0a1d3c"/><path d="m405 95v45h10v-45a15 15 0 0 1 15-15h20v-10h-20a25 25 0 0 0 -25 25z" fill="#0a1d3c"/><path d="m360 70h-35v10h35a15 15 0 0 1 15 15v5h-50a5 5 0 0 0 -5 5v10c0 13.55 11.91 25 26 25h34a5 5 0 0 0 5-5v-40a25 25 0 0 0 -25-25zm15 60h-29c-8.52 0-16-7-16-15v-5h45z" fill="#0a1d3c"/><path d="m550 147.9-15-15v-37.9a25 25 0 0 0 -25-25h-40a5 5 0 0 0 -5 5v40a25 25 0 0 0 25 25h37.93l15 15zm-60-17.9a15 15 0 0 1 -15-15v-35h35a15 15 0 0 1 15 15v27.93l-16.46-16.47-7.08 7.08 16.47 16.46z" fill="#0a1d3c"/></svg>