<svg fill="none" height="40" viewBox="0 0 149 40" width="149" xmlns="http://www.w3.org/2000/svg"><path d="m57.05 10h2.95v20h-2.95zm16.15 13c0 3.05-1.55 4.7-4 4.7-2.15 0-3.45-1.15-3.45-3.55v-8.25h-2.95v8.45c0 3.65 2.3 5.9 5.55 5.9 2.7 0 3.9-1.2 4.45-2.35h.45v2.1h2.9v-14.1h-2.95zm21.35-7.3c-2.3 0-3.45 1-4.05 2.3h-.45c-.65-1.3-1.85-2.3-3.95-2.3-2.05 0-3.15.9-3.7 1.9h-.45v-1.65h-2.9v14.05h2.95v-8.4c0-2.25 1.2-3.45 3.05-3.45 1.7 0 2.7.95 2.7 2.65v9.2h2.95v-8.4c0-2.25 1.2-3.45 3.05-3.45 1.7 0 2.7.95 2.7 2.65v9.2h2.95v-9.4c-.1-3.15-2.15-4.9-4.85-4.9zm21.25 6.95v1.1h-10.8c.1 2.5 1.85 4.05 4.2 4.05 2.25 0 3.2-1.15 3.8-2.45l2.45 1.25c-.85 1.65-2.5 3.75-6.3 3.75-4.3 0-7.15-2.9-7.15-7.25v-.35c0-4.4 2.9-7.3 7.05-7.3 4 .05 6.75 2.9 6.75 7.2zm-2.95-1.15c-.15-2.1-1.65-3.4-3.85-3.4-2.25 0-3.7 1.3-3.95 3.4zm5.65 8.5h2.95v-11.5h5.55v-2.6h-8.5zm21.3-14.1h2.9v14.1h-2.3-.45v-2.3h-.45c-.7 1.45-2.1 2.7-4.95 2.7-3.55 0-6.5-2.7-6.5-7.25v-.45c0-4.55 3-7.25 6.5-7.25 2.75 0 4.1 1.15 4.8 2.45h.45zm-.05 6.9c0-3.05-1.85-4.7-4.4-4.7-2.5 0-4.35 1.7-4.35 4.7v.25c0 3.05 1.85 4.75 4.35 4.75 2.55 0 4.4-1.7 4.4-4.75zm-91.8-12.8h-4.85v2.8h4.55c2.2 0 3.55 1.2 3.55 3.25v.3c0 2-1.45 3.2-3.55 3.2h-4.55v-6.75h-3.1v17.2h3.1v-7.7h4.85c3.55 0 6.35-2.25 6.35-5.95v-.35c0-3.7-2.7-6-6.35-6zm97.65 20h2.95v-14.1h-2.95zm-.1-20v3.1h3.1v-3.1z" fill="#000816"/><path d="m30 0v30h-20v10h-10v-30h10v10h10v-10h-10v-10z" fill="#4080ff"/></svg>