<svg fill="none" height="40" viewBox="0 0 211 40" width="211" xmlns="http://www.w3.org/2000/svg"><path d="m156.315 9.84v20.16h9.044c3.584 0 6.44-1.82 6.44-5.376 0-3.5-2.492-4.536-3.92-4.844v-.28c1.288-.308 3.64-1.456 3.64-4.592 0-3.276-2.688-5.068-6.16-5.068zm2.576 2.128h5.936c2.296 0 4.144 1.008 4.144 3.332s-1.848 3.332-4.144 3.332h-5.936zm0 8.792h5.992c2.492 0 4.368 1.176 4.368 3.584s-1.876 3.528-4.368 3.528h-5.992zm16.067-10.92v20.16h2.464v-20.16zm5.667 13.02c0 4.536 2.828 7.476 7.112 7.476s7.112-2.94 7.112-7.476c0-4.508-2.828-7.448-7.112-7.448s-7.112 2.94-7.112 7.448zm2.464 0c0-3.528 1.876-5.544 4.648-5.544s4.62 2.016 4.62 5.544c0 3.556-1.848 5.572-4.62 5.572s-4.648-2.016-4.648-5.572zm14.107-.224c0 4.48 2.856 7.196 6.44 7.196 2.352 0 3.78-1.036 4.592-2.156h.28v1.624c0 2.912-1.372 4.76-4.452 4.76-2.968 0-4.06-1.54-4.424-3.052h-2.268v.42c.532 2.184 2.436 4.48 6.748 4.48 4.536 0 6.86-2.632 6.86-6.72v-13.44h-1.736l-.56 1.988h-.28c-.756-1.12-2.184-2.324-4.704-2.324-3.584 0-6.496 2.716-6.496 7.224zm2.464 0c0-3.388 1.904-5.32 4.48-5.32s4.48 1.932 4.48 5.32-1.904 5.292-4.48 5.292-4.48-1.904-4.48-5.292z" fill="#8a8f99"/><path d="m57.05 10h2.95v20h-2.95zm16.15 13c0 3.05-1.55 4.7-4 4.7-2.15 0-3.45-1.15-3.45-3.55v-8.25h-2.95v8.45c0 3.65 2.3 5.9 5.55 5.9 2.7 0 3.9-1.2 4.45-2.35h.45v2.1h2.9v-14.1h-2.95zm21.35-7.3c-2.3 0-3.45 1-4.05 2.3h-.45c-.65-1.3-1.85-2.3-3.95-2.3-2.05 0-3.15.9-3.7 1.9h-.45v-1.65h-2.9v14.05h2.95v-8.4c0-2.25 1.2-3.45 3.05-3.45 1.7 0 2.7.95 2.7 2.65v9.2h2.95v-8.4c0-2.25 1.2-3.45 3.05-3.45 1.7 0 2.7.95 2.7 2.65v9.2h2.95v-9.4c-.1-3.15-2.15-4.9-4.85-4.9zm21.25 6.95v1.1h-10.8c.1 2.5 1.85 4.05 4.2 4.05 2.25 0 3.2-1.15 3.8-2.45l2.45 1.25c-.85 1.65-2.5 3.75-6.3 3.75-4.3 0-7.15-2.9-7.15-7.25v-.35c0-4.4 2.9-7.3 7.05-7.3 4 .05 6.75 2.9 6.75 7.2zm-2.95-1.15c-.15-2.1-1.65-3.4-3.85-3.4-2.25 0-3.7 1.3-3.95 3.4zm5.65 8.5h2.95v-11.5h5.55v-2.6h-8.5zm21.3-14.1h2.9v14.1h-2.3-.45v-2.3h-.45c-.7 1.45-2.1 2.7-4.95 2.7-3.55 0-6.5-2.7-6.5-7.25v-.45c0-4.55 3-7.25 6.5-7.25 2.75 0 4.1 1.15 4.8 2.45h.45zm-.05 6.9c0-3.05-1.85-4.7-4.4-4.7-2.5 0-4.35 1.7-4.35 4.7v.25c0 3.05 1.85 4.75 4.35 4.75 2.55 0 4.4-1.7 4.4-4.75zm-91.8-12.8h-4.85v2.8h4.55c2.2 0 3.55 1.2 3.55 3.25v.3c0 2-1.45 3.2-3.55 3.2h-4.55v-6.75h-3.1v17.2h3.1v-7.7h4.85c3.55 0 6.35-2.25 6.35-5.95v-.35c0-3.7-2.7-6-6.35-6zm97.65 20h2.95v-14.1h-2.95zm-.1-20v3.1h3.1v-3.1z" fill="#000816"/><path d="m30 0v30h-20v10h-10v-30h10v10h10v-10h-10v-10z" fill="#4080ff"/></svg>